<?xml version="1.0" encoding="utf-8"?>
<!-- Generator: Adobe Illustrator 22.1.0, SVG Export Plug-In . SVG Version: 6.00 Build 0)  -->
<svg version="1.1" id="Ebene_1" xmlns="http://www.w3.org/2000/svg" xmlns:xlink="http://www.w3.org/1999/xlink" x="0px" y="0px"
	 viewBox="0 0 283.5 283.5" style="enable-background:new 0 0 283.5 283.5;" xml:space="preserve">
<style type="text/css">
	.st0{fill:none;stroke:#171612;stroke-width:1.82;stroke-linecap:round;stroke-linejoin:round;}
	.st1{fill:none;stroke:#171612;stroke-width:1.872;stroke-linecap:round;stroke-linejoin:round;}
	.st2{fill:#FAC141;stroke:#FAC141;stroke-width:0.5;stroke-linecap:round;stroke-linejoin:round;}
	.st3{fill:none;stroke:#000000;stroke-width:3.543;stroke-linecap:round;stroke-linejoin:round;stroke-dasharray:0.354,5.314;}
	.st4{fill:none;stroke:#171612;stroke-width:1.806;stroke-linecap:round;stroke-linejoin:round;}
</style>
<g id="align-items--stretch">
	<path id="STROKE_a9cd335f-83d3-4231-a729-d7796d446ed5" class="st0" d="M5.6,28.2c0.3,0,0.6,0,0.9,0C6.8,28.2,6.5,28.2,5.6,28.2
		c0,1.8-0.2,38.1-0.5,109.1c0.5,0,2.7,0,6.4,0c3.8,0,7,0,9.6,0c2.6,0,8.2,0,16.8,0.1c8.6,0,15.2,0.1,19.8,0.1c4.6,0,8.3,0,11.1,0
		c2.8,0,9,0,18.8,0.1c9.8,0,18.1,0.1,24.9,0.1c6.8,0,11.8,0.1,15,0.1c3.2,0,5,0,5.3,0c0,0,0-8,0.1-23.8c0.1-15.9,0.1-28.1,0.2-36.6
		c0-8.5,0.1-14.8,0.1-18.9c0-4.1,0-7.4,0-9.8c0-2.4,0-9.1,0.1-20c-0.9,0-8.5,0-22.6-0.1c-14.2-0.1-27.4-0.1-39.5-0.2
		c-12.1-0.1-25.9-0.1-41.4-0.2C14.3,28.2,6.2,28.2,5.6,28.2"/>
	<path id="STROKE_98f8ba6f-f914-4a2e-8073-b30b2daf23cd" class="st1" d="M156.1,28.7c-0.6,0-1.3,0-2,0c0,0,0.1,0,0.1,0
		c0,0-0.4,0-1.3,0c0,1,0,6-0.1,14.9c0,9-0.1,19.1-0.1,30.4c0,11.3-0.1,20.3-0.1,27.2c0,6.9-0.1,14.4-0.1,22.6c0,8.2-0.1,12.8-0.1,14
		l1.2,0c0,0-0.3,0-0.9,0c0.4,0,0.4,0,0.1,0c-0.3,0,2.9,0,9.7,0c6.7,0,12,0.1,15.8,0.1c3.8,0,7.7,0,11.8,0.1c4,0,13,0.1,26.8,0.1
		c13.8,0.1,25,0.1,33.4,0.1c8.4,0,15.5,0.1,21.2,0.1c5.7,0,8.6,0,8.7,0c0-0.9,0.2-37.3,0.5-109.1c-0.9,0-1.3,0-1,0
		c0.3,0-20.5-0.1-62.2-0.3c-41.8-0.2-63.2-0.3-64.4-0.3"/>
	<path id="STROKE_6c7e3708-9f18-4dbf-b967-abb365dbdd5f" class="st2" d="M41.1,28.7c0-0.2,0-0.4,0-0.6c0-0.1-0.3-0.3-1-0.6
		c-0.2-0.2-0.5,0.7-0.9,2.6c-0.4,1.9-0.7,3.4-0.7,4.4c0,1-0.2,5.5-0.5,13.3C37.7,55.7,37.3,61.7,37,66c-0.4,4.3-0.6,8-0.7,11.1
		c-0.1,3.1-0.1,5.7-0.1,7.7c0,2,0,5.6-0.1,10.6c0,5.1-0.1,9.2-0.3,12.5c-0.1,3.3-0.2,5.6-0.1,7.1c0,1.4,0,2.7,0,3.7c0,1,0,2.1,0,3.2
		c0,1.2,0,2.1,0,2.9c0,0.8,0,1.5,0,2.2c0,0.7,0,1.1,0,1.2c0,0.1,0,0.5,0,1.2c0.1,0.6,0.1,1.1,0.2,1.4c0.1,0.3,0.1,0.6,0.2,0.9
		c0.1,0.3,0.2,0.7,0.4,1.2c0.2,0.5,0.3,0.9,0.4,1.1c0.1,0.2,0.1,0.4,0.2,0.5c0.1,0.1,0.1,0.1,0,0.2c0,0,0.1,0.2,0.3,0.4
		c0.3,0.2,0.4,0.3,0.3,0.2c-0.1,0,0-0.1,0.2,0c0.2,0,0.4,0.1,0.6,0.1c0.2,0.1,0.4,0.1,0.5,0.2c0.1,0.1,0.3,0.2,0.4,0.2
		c0.1,0.1,0.2,0.1,0.2,0.1c0,0,0,0,0,0c0,0,0,0,0.2,0.1c0.1,0.1,0.4,0.1,0.6,0.2c0.3,0,0.4,0.1,0.5,0c0,0,0,0,0,0c0,0,0.1,0,0.3-0.1
		c0.2-0.1,1.3-0.1,3.1-0.2c1.9-0.1,4.6-0.1,8.3-0.3c3.7-0.1,6.3-0.3,8-0.5c1.7-0.2,3.5-0.3,5.6-0.1c2.1,0.2,3.9,0,5.6-0.5
		c1.6-0.5,3.1-1,4.4-1.5c1.3-0.5,2.5-0.4,3.8,0.1c1.2,0.6,2.4,1.2,3.4,1.9c1,0.7,1.8,1.3,2.4,1.8c0.6,0.5,0.8,0.7,0.7,0.6
		c-0.1-0.1-0.1-0.1,0-0.1c0.1,0,0.1,0,0,0c-0.1,0-0.2,0-0.1,0c0,0,0,0,0,0c0,0,0,0,0,0c0,0,0.1,0,0.1,0s0.1,0,0.2,0
		c0.1,0,0.1,0-0.1,0c-0.1,0-0.1,0,0.2,0c0.3,0,0.6,0.1,0.8,0.1c0.3,0,0.6,0.1,0.9,0.1c0.3,0,0.4,0,0.4,0c-0.1,0-0.1,0-0.2,0
		c0.4,0.5,0.6-1.8,0.5-6.7c0-4.9,0-9.3,0.3-13.2c0.2-3.9,0.4-6.9,0.6-8.9c0.2-2,0.3-3.5,0.4-4.6c0.1-1.1,0.5-5.2,1.1-12.5
		c0.7-7.2,1.2-13.7,1.5-19.3c0.3-5.6,0.4-10,0.4-13.2c0-3.2,0-6.6,0.2-10.2c0.1-3.7,0.1-6.6,0-8.8c-0.1-2.2-0.2-3.7-0.2-4.7
		c0-0.9,0-1.5-0.1-1.8c-0.1-0.3-0.1-0.4-0.1-0.3c0,0.1,0,0.1,0,0c0,0,0,0,0,0c0,0.1,0.1,0.1,0,0c0,0-0.1-0.3-0.4-0.8
		c-0.2-0.5-0.3-0.7-0.3-0.6c-0.3-0.9-0.4-1.2-0.3-0.9c0-0.1-0.1-0.2-0.2-0.4c0,0-0.1,0-0.3,0c0,0,0-0.2,0-0.3c0-0.2-0.1-0.4-0.1-0.5
		"/>
	<path id="STROKE_3fd09563-c671-45a0-8c5c-ab5bac56c51a" class="st2" d="M206,28c-0.9-0.3-1.2-0.4-0.9-0.3c0,0-0.3,0-0.7,0.1
		c-0.2,0.5-0.3,2.8-0.2,7.1c0.1,4.2,0.1,11,0,20.4c-0.1,9.4-0.2,16.7-0.4,22.1c-0.1,5.4-0.4,9.5-0.8,12.5c-0.4,3-0.6,5.1-0.8,6.4
		c-0.2,1.3-0.3,2.2-0.4,2.7c-0.1,0.5-0.1,1.6-0.1,3.4c0.1,1.8,0,4.7-0.2,8.6c-0.2,3.9-0.4,6.8-0.5,8.6c-0.1,1.8-0.2,3.2-0.1,4.1
		c0,1,0.1,1.7,0,2.1c0,0.5,0,0.6,0,0.5c0-0.1,0,0.4,0,1.6c0,1.2,0,2.3,0,3.3c0,1,0.1,1.7,0.2,2.1c0.1,0.4,0.2,0.8,0.3,1.4
		c0,0,0,0,0.1,0c0,0.1,0.1,0.2,0.3,0.5c0.2,0.3,0.2,0.4,0.2,0.3c0-0.1,0-0.1,0-0.1c0,0,0.1,0.1,0.2,0.3c0.7,0,1,0.1,1,0.1
		c0,0,0,0,0,0c0.9,0,1.3,0,1.1,0c0.5,0,0.8,0,0.8-0.1c-0.1,0,1.4-0.2,4.4-0.4c3-0.3,5.3-0.4,6.9-0.4c1.6,0,2.9-0.1,4-0.3
		c1.1-0.2,2-0.6,2.9-1c0-0.3,0.1-0.4,0-0.1c0,0.3-0.1-2-0.3-6.7c-0.2-4.7-0.1-10.2,0.2-16.6c0.3-6.4,0.6-11.4,0.9-15
		c0.3-3.7,0.4-6.3,0.4-7.9c0-1.6-0.2-3.8-0.4-6.5c-0.3-2.7-0.2-6,0.3-9.9c0.5-3.9,0.8-7,1-9.2c0.2-2.2,0.3-4.3,0.4-6.2
		c0.1-1.9,0.2-3.4,0.3-4.5c0.1-1.1,0.1-2.7,0.2-4.9c0-2.2,0-7.8-0.2-17.1c0,0,0,0.3-0.1,0.8c-0.1,0.5-0.1,0.9-0.2,1.1"/>
	<path id="STROKE_096ed41d-f64c-49ec-ba34-55a3ab17ca0b" class="st3" d="M63.9,29.9c-0.1-1.2-0.1-1.5-0.1-1.1
		c-0.1,0-0.2,0.2-0.2,0.6c-0.1,0.3-0.1,0.5-0.1,0.6c0,0.1,0,0-0.2-0.1c-0.1-0.2-0.4,2.2-0.7,7.2c-0.3,5-0.5,9.6-0.6,13.8
		c-0.1,4.2-0.1,8.3-0.2,12.4c0,4.1,0,7,0,8.8c0,1.8-0.1,5.4-0.3,11c-0.2,5.6-0.4,9.7-0.5,12.5c-0.1,2.8-0.2,4.7-0.3,5.7
		c0,1.1-0.1,2,0,2.7c0,0.7,0,1.7,0,3c0,1.3,0,2.3,0,3.2c0,0.8,0,1.5,0,2c0,0.5,0,0.8,0,0.8c0,0,0,0.3,0,0.7c0,0.4,0,0.6,0,0.5
		c0,0,0-0.1,0-0.1c0,0,0,0.9,0,2.6s0,3.1,0,4.2c0,1,0,1.8,0,2.2c0,0.5,0,0.7,0,0.6c0,0,0,0,0,0.1c0,0.1,0,0.3,0,0.6
		c0,0.3,0,0.4,0,0.4c0,0,0,0,0,0c0,0,0,0.1,0,0.4c0,0.3,0,1,0,2.2s0,2,0,2.4c0,0.4,0,0.8,0,1.3c0,0.5,0,0.7,0,0.6c0-0.1,0-0.1,0,0
		c0,0.1,0,0.3,0,0.5c0,0.2,0,0.6,0,1.1c0,0.5,0,0.7,0,0.7c0,0,0-0.1,0-0.2c0-0.1,0,0.4,0,1.4c0,0-0.1,0-0.1,0
		c-0.1-0.5-0.1-0.5,0-0.3c0.1,0.3,0.1,0.2-0.1-0.3c-0.1-0.5-0.3-0.9-0.4-1.3c-0.1-0.4-0.2-0.6-0.2-0.7c0-0.1,0-0.1,0-0.1
		c0,0,0-0.1-0.1-0.3c-0.1-0.2-0.1-0.4-0.2-0.5c0-0.1-0.1-0.1-0.1-0.1c0,0-0.1-0.1-0.2-0.3c-0.1-0.2-0.2-0.5-0.4-0.9
		c-0.1-0.4-0.2-0.6-0.3-0.7c0-0.1-0.1-0.3-0.3-0.6c-0.2-0.3-0.4-0.8-0.8-1.6c-0.4-0.8-0.5-1-0.3-0.8c0.2,0.2-0.9-1.9-3.3-6.5
		c-0.8,0.4,3.5-0.2,13-1.8c0.1,1,0.2,1.3,0.1,1c0,1,0,1.4,0,1.2c0,0.8,0,1.2,0,1c0,0.8-0.1,1.2-0.1,1.2c0.1,0.2-0.3,1.8-1.3,4.9
		c-1,3.1-1.5,5.5-1.6,7.2c-0.1,1.7-0.1,2.7-0.1,2.7"/>
	<path id="STROKE_6a9d7361-51f9-4144-b28a-cb02ad5e3038" class="st3" d="M62.3,32.7c0-0.6,0-0.8,0-0.6c-0.1-1-0.1-1.3-0.1-1
		c-0.6-0.4-1.5,0.6-2.8,3.1c-1.3,2.5-2.4,5-3.5,7.5c-1,2.5-1.9,6-2.6,10.4c-0.3,0,4.7,0.8,14.9,2.4c0.2-0.6,0.3-0.8,0.2-0.6
		c0-1.1,0-1.5,0-1.2c0-0.7-0.1-1.1-0.1-1c0-0.3-0.9-4.6-2.6-13C64,30.3,63.1,26,63,25.7"/>
	<path id="STROKE_9cb20251-2791-4046-8b8a-d801454185c3" class="st3" d="M216,29.4c-0.6,0.4-0.9,0.5-0.7,0.4
		c-0.5,0.4-0.7,0.7-0.6,0.7c-0.3,0.5-0.4,0.7-0.3,0.7c-0.1,1.1-0.1,1.5-0.1,1.2c0,0,0,3.6,0,10.6c-0.1,7-0.1,12.7,0,17.2
		c0.1,4.5,0.2,9.6,0.4,15.4c0.2,5.8,0.2,10.2,0,13.3c-0.2,3.1-0.3,5.7-0.2,7.6c0,1.9,0,3.6-0.2,5.1c-0.2,1.5-0.3,2.6-0.4,3.3
		c0,0.7-0.1,2.3-0.2,4.6c-0.1,2.4-0.1,4-0.2,5.1c-0.1,1-0.3,2.8-0.6,5.4c-0.3,2.6-0.5,5.1-0.8,7.6c-0.3,2.5-0.4,4.5-0.3,6.3
		c-0.3,0.8-0.3,1.1-0.2,0.8c0-0.1-0.1,0.3-0.4,1.3c0,0-0.1,0-0.3-0.1c-0.1,0,0,0.1,0.1,0.2c0.1,0.1,0-0.3-0.3-1.1
		c-0.3-0.9-0.6-1.5-1-2c-0.3-0.4-0.6-0.8-0.8-1.2c-0.2-0.3-0.3-0.4-0.2-0.3c0.1,0.2-0.2-1-0.8-3.5c-0.6-2.5-2.1-6.4-4.4-11.4
		c1.1,0,1.5,0,1.1,0c0.8,0.3,1.4,0.6,1.7,1.1c0.4,0.5,1.3,1,2.6,1.6c1.3,0.6,4.5,0.2,9.4-1c0,1.1,0,1.5,0,1.2
		c-0.2,0.6-0.2,0.9-0.2,0.9c-0.7,1.4-2.2,7.3-4.5,17.7c0-0.1,0-0.2-0.1-0.5c-0.1-0.2-0.2-0.5-0.3-0.9"/>
	<path id="STROKE_1dc786a5-1a86-4024-8a8a-5240d62da730" class="st3" d="M213.6,31.7c0-0.7,0-0.9,0-0.7c0,0,0-0.3-0.1-0.7
		c-0.6-0.8-2.8,6.3-6.5,21.3c0.7,0.1,1,0.2,0.9,0.1c1.2,0,1.6,0,1.4,0c0.1-0.2,0.9-0.3,2.6-0.3c1.6,0,4.8,0.5,9.5,1.5
		c0-0.6,0-0.9,0-0.9c0,0.1,0-0.2-0.2-0.9c-0.1-0.7-0.3-1.1-0.4-1.4c-0.1-0.3-0.6-2.2-1.4-5.7c-0.8-3.5-1.6-6.7-2.4-9.5
		c-0.8-2.8-1.6-4.7-2.4-5.6c-0.8-0.9-1.3-1.5-1.4-1.5"/>
	<g>
		<path id="STROKE_d5e4ce49-a59e-4326-a01b-d0544cdbdb5d" class="st4" d="M8.1,151c-0.3,0-0.6,0-1.1,0c0,0,0.1,0,0.1,0
			c0.1,0-0.4,0-1.4,0c0,1.3,0,4.9,0,10.6c0,5.8,0,10.8-0.1,15.1c0,4.3-0.1,18.7-0.2,43.3c-0.1,24.6-0.2,37.9-0.2,40.1
			c1,0,2.1,0,3.2,0c1.1,0,5,0,11.9,0.1c6.8,0,12.1,0.1,15.9,0.1c3.8,0,6.6,0,8.5,0c1.9,0,11.6,0,29.2,0.1
			c17.6,0.1,31.8,0.1,42.6,0.2c10.9,0,16.3,0.1,16.4,0.1c0-0.4,0.2-36.8,0.5-109.1c-0.9,0-5.3,0-13.4-0.1c-8.1,0-17.5-0.1-28.2-0.1
			c-10.8,0-19.7-0.1-26.9-0.1c-7.2,0-12.5-0.1-15.9-0.1c-3.4,0-7.3,0-11.8-0.1c-4.4,0-10.7,0-18.9-0.1C10,151,5.8,151,5.7,151"/>
		<path id="STROKE_c161b67a-569e-478e-a645-4f7cfe9856db" class="st2" d="M23.9,154.6c-0.1-0.3-0.1-0.5-0.1-0.5
			c-0.2-0.6-0.2-0.8-0.2-0.6c-0.1-0.2-0.1-0.3-0.1-0.3c0,0,0,0,0,0c0,0,0-0.1-0.1-0.3c-0.1-0.2-0.2-0.5-0.3-0.9
			c-0.5,0.2-0.7,0.3-0.5,0.2c-0.2,0.6-0.3,0.9-0.3,1c0,0,0,0,0,0c0,1,0,1.3,0,1c0,1,0,1.4,0,1.3c-0.1,0.4-0.1,6.3,0,17.6
			c0.1,11.3,0.2,19.8,0.4,25.5c0.2,5.7,0.3,10.2,0.5,13.3c0.2,3.2,0.2,6.4,0.1,9.7c-0.1,3.3-0.1,6.6-0.2,10
			c-0.1,3.3,0.1,6.5,0.4,9.5c0.3,3,0.4,5.2,0.4,6.7c0,1.5,0,2.9,0,4.2c0,1.4,0.1,2.3,0.3,2.8c0.2,0.5,0.3,0.8,0.3,0.9
			c0,0.1,0.1,0.3,0.2,0.6c0.1,0.3,0.3,0.7,0.4,1.1c0.2,0.4,0.2,0.6,0.2,0.7c0,0,0,0,0-0.1c0-0.1,0.1,0.2,0.2,0.9
			c0.6,0,0.9-0.1,0.7-0.1c-0.3,0.3,0.2,0.1,1.5-0.6c1.3-0.7,3.6-1.2,6.7-1.5c3.1-0.3,5.7-0.4,7.7-0.5c2.1,0,4.2,0,6.4,0
			c2.2,0,4.6-0.2,7.1-0.7c2.5-0.5,4.6-0.8,6.2-0.9c1.6-0.1,3.5-0.1,5.7,0c2.2,0.1,4.2,0,6.1-0.4c1.9-0.4,4.3-0.2,7.3,0.4
			c3,0.7,5.3,1.1,6.9,1.4c1.6,0.3,3,0.6,4,0.9c1.1,0.3,2.2,0.6,3.3,0.7c1.1,0.1,2.1,0.2,2.9,0.2c0.9,0,1.5,0,1.9,0
			c0.4,0,0.7,0,1,0.1c0.3,0,0.6,0.1,0.9,0c0.3,0,0.7,0,1,0.1c0.3,0.1,0.6,0.1,0.8,0.2c0.2,0,0.4,0.1,0.5,0.1c0.1,0,0.2,0,0.1,0
			c-0.1,0,0.1,0.1,0.5,0.2c0.4,0.2,0.8,0.4,1.1,0.5c0.3,0.2,0.6,0.4,1,0.6c0.4,0.2,0.6,0.3,0.6,0.4c0,0,0.1,0,0,0c0,0,0,0,0.1,0
			c0,0,0,0,0,0.1c-0.1,0.1-0.3-0.6-0.8-2c-0.5-1.4-0.8-4.5-0.9-9.3c-0.1-4.8-0.1-8.6,0-11.5c0.1-2.9,0.2-6.4,0.2-10.4
			c0.1-4,0.1-7.1,0.1-9.4c0-2.3-0.1-4.4-0.2-6.3c-0.1-1.9-0.3-3.8-0.6-5.9c-0.2-2-0.3-5,0-9c0.2-4,0.5-8.7,0.9-14.1
			c0.3-5.4,0.5-9.5,0.6-12.4c0.1-2.9,0.1-5.7,0.1-8.4c0-2.6-0.1-4.6-0.2-5.9c-0.1-1.3,0-2.8,0.3-4.3h0c0,0,0,0,0-0.1
			c0,0,0.1,0,0.1-0.1c0,0,0,0.1,0.2,0.3c0.1,0.3,0.2,0.5,0.3,0.6"/>
		<path id="STROKE_dafafa73-c92c-4be1-8c28-9214761bd77c" class="st3" d="M61.9,156.1c-0.1-0.2-0.2-0.3-0.3-0.4
			c-0.1-0.1-0.1-0.1,0-0.1c0.1,0,0.1,0,0,0c0,0-0.2-0.1-0.4-0.3c-0.2-0.2-0.4-0.5-0.5-0.9c0,0,0,0.1,0,0.2c0.2,0.3,0.3,0.4,0.3,0.4
			c0.5,0.5,0.7,5.6,0.7,15.5c0,9.8-0.1,17.3-0.2,22.4c-0.1,5.1-0.1,9.1-0.1,11.9c0,2.8,0,5.6,0,8.4c0,2.8,0,5,0,6.8s0,3.3,0.1,4.9
			c0,1.5,0,3.5-0.2,6c-0.1,2.4-0.3,5.4-0.4,8.8c-0.1,3.4-0.1,6-0.2,7.7c0,1.7,0,3,0,3.8c0,0.9,0,1.5,0,2c0,0.4,0,0.6,0,0.6
			c0,0,0-0.1,0-0.2c0-0.1,0,0.2,0,1c0,0-0.1-0.2-0.2-0.4c-0.7-0.1-0.9-0.2-0.8-0.2c-0.1-0.3-0.3-0.5-0.3-0.6
			c-0.1-0.1-0.3-0.7-0.7-1.9c-0.4-1.2-0.8-2.4-1.2-3.5c-0.4-1.1-0.8-2-1-2.7c-0.3-0.7-0.6-1.5-1.1-2.5c-0.5-1-1.1-2.4-2-4.1
			c0.6,0,0.9,0.1,0.8,0.1c0.9,0.2,1.2,0.2,1,0.2c1.1,0,1.6,0,1.2,0c-0.5,0.1,3.7-0.4,12.5-1.3c0,0.1,0.1,0.3,0.2,0.7
			c-0.3,0.3-0.5,0.5-0.7,0.8c-0.2,0.3-0.3,0.5-0.2,0.6c0,0.1-0.1,0.1-0.3-0.2c-0.2-0.2-1.8,6.2-4.7,19.3c-0.1-0.4,0-0.9,0.2-1.7
			c0.2-0.7,0.4-1.3,0.6-1.7"/>
		<path id="STROKE_f106b88b-a316-43d2-868c-8a7656eb9268" class="st3" d="M59.2,154.3c0-1,0.1-1.4,0.1-1.2c0-0.1,0-0.4,0-0.8
			c-0.1,1-0.2,1.3-0.1,1c-0.1,0.1-0.2,0.4-0.3,0.9c-0.1,0.5-0.2,0.8-0.3,1c0,0.2-0.1,0.3-0.1,0.3c0-0.1,0-0.1,0.1,0
			c0.1,0-0.3,1.6-1,4.6c-0.7,3-1.6,5.9-2.7,8.8c-1.1,2.8-1.8,5.6-2.2,8.4c-0.9,0,0,0.1,2.8,0.3c2.8,0.2,5.1,0.2,7,0.2
			c1.8,0,3,0,3.5,0c0.5,0,1,0,1.5,0c0.5,0,1.1,0,1.7,0.2c0.6,0.2,1.1,0.4,1.5,0.6c0.4,0.2,0.6,0.4,0.7,0.5c0.1,0.1,0.1,0.2,0.2,0.3
			c0,0.1,0.2,0.5,0.5,1.1c-0.7,0.1-1.9-2.5-3.8-7.9c-1.9-5.4-3.9-11.9-6-19.6c-0.1,0-0.2,0-0.3,0.1c-0.1,0-0.2,0.1-0.3,0.2"/>
	</g>
</g>
</svg>
