<?xml version="1.0" encoding="utf-8"?>
<!-- Generator: Adobe Illustrator 22.1.0, SVG Export Plug-In . SVG Version: 6.00 Build 0)  -->
<svg version="1.1" id="Ebene_1" xmlns="http://www.w3.org/2000/svg" xmlns:xlink="http://www.w3.org/1999/xlink" x="0px" y="0px"
	 viewBox="0 0 283.5 283.5" style="enable-background:new 0 0 283.5 283.5;" xml:space="preserve">
<style type="text/css">
	.st0{fill:none;stroke:#171612;stroke-width:1.82;stroke-linecap:round;stroke-linejoin:round;}
	.st1{fill:none;stroke:#171612;stroke-width:1.872;stroke-linecap:round;stroke-linejoin:round;}
	.st2{fill:#FAC141;stroke:#FAC141;stroke-width:0.5;stroke-linecap:round;stroke-linejoin:round;}
	.st3{fill:none;stroke:#000000;stroke-width:3.543;stroke-linecap:round;stroke-linejoin:round;stroke-dasharray:0.354,5.314;}
	.st4{fill:none;stroke:#171612;stroke-width:1.806;stroke-linecap:round;stroke-linejoin:round;}
</style>
<g id="align-items--end">
	<path id="STROKE_ef4238f9-6e63-4257-a066-384ec3e3e23e" class="st0" d="M4.9,25.5c0.3,0,0.6,0,0.9,0C6.1,25.5,5.8,25.5,4.9,25.5
		c0,1.8-0.2,38.1-0.5,109.1c0.5,0,2.7,0,6.4,0c3.8,0,7,0,9.6,0c2.6,0,8.2,0,16.8,0.1c8.6,0,15.2,0.1,19.8,0.1c4.6,0,8.3,0,11.1,0
		c2.8,0,9,0,18.8,0.1c9.8,0,18.1,0.1,24.9,0.1c6.8,0,11.8,0.1,15,0.1c3.2,0,5,0,5.3,0c0,0,0-8,0.1-23.8c0.1-15.9,0.1-28.1,0.2-36.6
		s0.1-14.8,0.1-18.9c0-4.1,0-7.4,0-9.8c0-2.4,0-9.1,0.1-20c-0.9,0-8.5,0-22.6-0.1c-14.2-0.1-27.4-0.1-39.5-0.2S44.5,25.6,29,25.6
		C13.6,25.5,5.5,25.5,4.9,25.5"/>
	<path id="STROKE_d1cf7682-f450-423d-aec0-495e4cc7bd61" class="st1" d="M155.4,26c-0.6,0-1.3,0-2,0c0,0,0.1,0,0.1,0
		c0,0-0.4,0-1.3,0c0,1,0,6-0.1,14.9c0,9-0.1,19.1-0.1,30.4c0,11.3-0.1,20.3-0.1,27.2c0,6.9-0.1,14.4-0.1,22.6c0,8.2-0.1,12.8-0.1,14
		l1.2,0c0,0-0.3,0-0.9,0c0.4,0,0.4,0,0.1,0c-0.3,0,2.9,0,9.7,0c6.7,0,12,0.1,15.8,0.1c3.8,0,7.7,0,11.8,0.1c4,0,13,0.1,26.8,0.1
		c13.8,0.1,25,0.1,33.4,0.1c8.4,0,15.5,0.1,21.2,0.1c5.7,0,8.6,0,8.7,0c0-0.9,0.2-37.3,0.5-109.1c-0.9,0-1.3,0-1,0
		c0.3,0-20.5-0.1-62.2-0.3c-41.8-0.2-63.2-0.3-64.4-0.3"/>
	<path id="STROKE_236bacae-86ad-4916-8910-cbd67612111c" class="st2" d="M37.2,88.1c0-0.7,0-1,0-0.9c0-0.8,0-1.2,0-1
		C37.1,85.3,37,85,37,85.3c-0.2-0.2-0.7,0.4-1.3,1.9c-0.6,1.5-1.1,3.9-1.4,7.4c-0.3,3.4-0.5,6.7-0.6,9.9c-0.1,3.2-0.3,6.5-0.5,10.2
		c-0.2,3.6-0.4,6.8-0.3,9.7c0,2.8,0,6,0,9.4c0.6,0.1,0.8,0.1,0.7,0.1c1.1,0.1,1.5,0.1,1.2,0.1c-0.1,0.3,2.2,0.1,7-0.4
		c4.8-0.5,8.5-0.9,11.3-1c2.8-0.2,4.7-0.2,5.6-0.2c1,0,2.4,0,4.2-0.1c1.8-0.1,3.4,0,4.7,0.3c1.4,0.3,2.7,0.6,3.9,0.9
		c1.3,0.3,2.3,0.4,3.2,0.3c0.9-0.1,1.7-0.1,2.7,0c0.9,0.1,1.5,0.3,1.8,0.4c0.3,0.2,0.6,0.2,0.9,0.2c0.3,0,0.6,0,0.7,0
		c0.2,0,0.3,0,0.3,0c0,0,0.1,0,0.1,0c0,0-0.1,0-0.2-0.2c-0.1-0.1,0.9,0.2,3.1,0.9c0,0,0,0,0,0.1c0.5-0.6,0.7-0.8,0.5-0.7
		c0.1-0.6,0.2-0.9,0.2-0.8c0-0.7,0.4-3.2,1-7.6c0.6-4.4,1.1-8.6,1.5-12.6c0.4-4,0.7-7.2,0.9-9.3c0.2-2.2,0.4-3.5,0.5-4.1
		c0.1-0.6,0.3-1.6,0.4-3.1c0.1-1.5,0.2-2.8,0.3-3.9c0.1-1.1,0.2-1.8,0.3-2.2c0.1-0.4,0.1-0.8,0.1-1.2c0-0.4,0-0.5,0-0.5c0,0,0,0,0,0
		c0,0,0-0.2,0-0.4c0-0.3,0-0.5,0-0.8c0,0,0,0.1,0,0.3c0,0.2-0.1,0.4-0.1,0.6"/>
	<path id="STROKE_63986418-2a4b-4fa2-99bb-b9d46efc065b" class="st2" d="M203.1,118.2c0,0.8,0,1.1,0,0.8v0c-0.6-0.2-1.2,1.9-1.7,6.1
		c-0.5,4.3-0.6,8.7-0.3,13.2c0.6,0,0.8,0.1,0.8,0c1.2,0,1.6,0,1.2,0c0.5,0,0.8,0,0.8,0c-0.6-0.2,0.4-0.3,2.8-0.4
		c2.4-0.1,4.9,0,7.5,0.4c2.6,0.4,4.2,0.6,5,0.6c0.8,0.1,3-0.2,6.5-0.8c-0.1,0.2,0.1-0.1,0.4-1.1c0.3-1,0.5-2.5,0.6-4.5
		c0.1-2,0.1-3.7,0.1-5.1c-0.1-1.4,0-2.7,0.1-4c0.1-1.3,0.3-2.4,0.6-3.2c0.3-0.8,0.4-1.4,0.5-1.8c0-0.4,0.1-0.7,0.1-0.9
		c0-0.2,0-0.4,0-0.6c0-0.1,0-0.2,0-0.2c0,0,0,0,0-0.1c0-0.1,0-0.2,0-0.5c0-0.3,0-0.4,0-0.3c0,0,0,0,0,0c0,0,0-0.2,0-0.6
		c-0.1-0.1-0.3-0.1-0.4-0.2"/>
	<path id="STROKE_200d8591-299d-4d19-8d6a-d825aeed36e9" class="st3" d="M59.1,32.8c-0.1,0.6-0.1-1.6-0.1-6.6c0,0,0.1,0,0.1,0
		c0,0.5,0,0.7,0,0.6c0,0.9-0.1,1.2-0.1,0.9c-0.4,0.7-0.7,1.7-0.8,2.8c-0.1,1.1-0.2,3.4-0.4,6.7c-0.1,3.3-0.4,8.8-0.8,16.5
		c-0.4,7.6-0.6,13.7-0.7,18.4c-0.1,4.6-0.1,8.2-0.1,10.8c0,2.6,0,4.6-0.1,6.2c0,0-0.1,0-0.2,0c-0.7-0.6-1-0.9-0.9-0.9
		c0.1,0,0.1-0.1,0-0.2c-0.1-0.2-0.2-0.2-0.3-0.1S52.1,82,47,70.3c0,0,0,0-0.1,0c0.6-0.3,0.9-0.4,0.8-0.4c0-0.2,1.2-0.5,3.4-0.8
		c2.2-0.3,4.5-0.5,6.9-0.4c2.4,0.1,4.2,0.2,5.3,0.4c1.1,0.2,2.5-0.5,4.1-1.9c0.1-0.1,0.1-0.1-0.1,0.1c-0.2,0.2-0.4,0.5-0.7,0.8
		c-0.3,0.3-0.5,0.5-0.7,0.8c-0.2,0.2-0.3,0.3-0.3,0.3c0,0,0,0,0.1-0.1c0.1-0.1,0,0-0.1,0.1c-0.2,0.2-0.3,0.4-0.5,0.6
		c-0.2,0.3-0.3,0.4-0.3,0.4c0,0,0,0,0.1-0.1c0-0.1,0-0.1,0,0c0,0.1-0.2,0.4-0.5,0.9c-0.3,0.5-0.6,1.2-1.1,2.2
		c-0.5,0.9-0.9,2-1.4,3.3c-0.4,1.2-2.7,5.6-6.9,13.2c0,0,0.1,0,0.2-0.1c0.1-0.1,0.3-0.2,0.4-0.3"/>
	<path id="STROKE_5cb7342c-a983-40e3-87f3-36c7a4783785" class="st3" d="M214,34.8c0-0.2,0-0.8,0-1.7c0-0.9,0-1.9,0.1-2.8
		c0.1-0.9,0.2-1.5,0.3-1.9c0.1-0.4,0.1-0.8,0.2-1.2c0.1-0.4,0.1-0.6,0.1-0.7c-0.2,0.4-0.4,3.5-0.9,9.2c-0.4,5.7-0.7,10.8-0.9,15.3
		c-0.2,4.5-0.3,8.3-0.4,11.4s-0.1,5.7-0.1,7.9c0,2.2,0,4.4,0,6.5c0,2.1,0,4.3,0,6.5c0.1,2.3,0.2,5,0.4,8.4c0.2,3.3,0.3,6.2,0.2,8.8
		c-0.1,2.5-0.1,4.9-0.1,7c0,2.1,0,3.5,0,4.2c0,0.7,0,1.4,0,2c0,0.6,0,1.2,0,1.7c0,0.5,0,0.8,0,1c0,0.1,0,0.2,0,0.1c0,0,0-0.1,0,0
		c0,0,0,0.2,0,0.6c0,0.4,0,0.5,0,0.6c0,0,0-0.1,0-0.3c0-0.2,0,0.4,0,1.8c-0.1-0.2-0.3-0.5-0.6-1c-0.3-0.5-0.4-0.7-0.3-0.6
		c0,0.1,0.1,0.1,0,0.1c0,0,0,0,0,0c0,0,0-0.1-0.2-0.3c-0.1-0.2-0.3-0.5-0.5-0.9c-0.2-0.4-0.4-0.8-0.7-1.1c-0.2-0.4-0.4-0.8-0.6-1.2
		c-0.2-0.4-0.3-0.6-0.2-0.6c0,0-0.9-1.6-2.8-4.8c-1.9-3.2-3.4-7-4.5-11.4c0.3-0.2,1.9-0.1,5,0.2c3,0.3,5.5,0.6,7.3,0.9
		c1.8,0.3,3.2,0.5,4.1,0.5c0.9,0,1.5,0,2,0c0.5,0,0.7,0,0.7,0c0,0,0.3,0,1,0.1c0.7,0,1.8-0.6,3.3-1.9c-1.2-0.1-2.8,1.4-4.8,4.7
		c-2.1,3.3-4.6,9-7.7,17.1c0-0.2,0.1-0.4,0.1-0.7c0.1-0.3,0.2-0.6,0.3-1.1"/>
	<g>
		<path id="STROKE_c2b51a98-1b57-4c90-8a3b-b7a3421f31cb" class="st4" d="M7.4,149.8c-0.3,0-0.6,0-1.1,0c0,0,0.1,0,0.1,0
			c0.1,0-0.4,0-1.4,0c0,1.3,0,4.9,0,10.6c0,5.8,0,10.8-0.1,15.1c0,4.3-0.1,18.7-0.2,43.3c-0.1,24.6-0.2,37.9-0.2,40.1
			c1,0,2.1,0,3.2,0c1.1,0,5,0,11.9,0.1s12.1,0.1,15.9,0.1c3.8,0,6.6,0,8.5,0c1.9,0,11.6,0,29.2,0.1c17.6,0.1,31.8,0.1,42.6,0.2
			c10.9,0,16.3,0.1,16.4,0.1c0-0.4,0.2-36.8,0.5-109.1c-0.9,0-5.3,0-13.4-0.1c-8.1,0-17.5-0.1-28.2-0.1c-10.8,0-19.7-0.1-26.9-0.1
			c-7.2,0-12.5-0.1-15.9-0.1c-3.4,0-7.3,0-11.8-0.1c-4.4,0-10.7,0-18.9-0.1c-8.2,0-12.3-0.1-12.5-0.1"/>
		<path id="STROKE_af0327be-39d6-4fbc-9b5f-2b21cd41209d" class="st2" d="M27.1,190.4c0-0.3,0-0.7,0-1.1c-0.1-0.4,0.1-1.2,0.4-2.5
			c0,0,0,0,0.1,0c0.1,0.3,0.2,3.1,0.1,8.6c0,5.4-0.1,11,0,16.7c0,5.7,0.1,10.1,0.2,13c0.1,2.9,0.3,5.1,0.5,6.4
			c0.2,1.3,0.4,2.9,0.5,4.8c0.1,1.9,0,3.8-0.3,5.6c-0.4,1.8-0.7,3.5-0.9,5.1c-0.3,1.6-0.4,2.8-0.4,3.5c0,0.7,0,1.4,0,2.2
			c0,0.7,0,1.1,0,1.1c0,0,0,0.3,0,1c0,0.6,0,1.1,0,1.3c0,0.2,0.1,0.3,0.1,0.2c0.1,0,0-0.1-0.1,0c-0.1,0,0.1,0.2,0.7,0.6
			c0.6,0.4,0.9,0.6,1.1,0.6c0.2,0,0.2,0,0.2,0c0,0,0.3,0.1,0.8,0.3c0.5,0.2,2.2,0.2,4.8,0.1c2.7-0.1,4.7-0.3,6.2-0.5
			c1.5-0.2,2.9-0.4,4.3-0.5c1.4-0.1,3.3-0.1,5.9,0.1c2.5,0.2,5,0.4,7.2,0.6c2.3,0.3,4.2,0.4,5.7,0.4c1.5,0,3.1-0.2,4.8-0.5
			c1.7-0.4,3.5-0.4,5.4,0c1.9,0.3,3.3,0.7,4.3,1c1,0.3,1.8,0.5,2.4,0.5c0.6,0,1.2,0,1.7,0c0.5,0,0.7,0,0.6,0c-0.1,0,0.1,0,0.7,0
			c0.6,0,1.4,0,2.4,0.1c1,0.1,1.6,0.2,1.9,0.2c0.3,0,0.6,0,0.9,0c0.3,0,0.6,0,0.9,0c0.3,0,0.3,0,0.2,0c-0.2,0-0.1,0,0.2,0
			c0.3,0,0.6,0,0.9,0c0.3,0,0.6,0,1,0c0.3,0,0.7,0,1.1,0c0.4,0,0.8-0.1,1.1-0.1c0.4,0,0.6-0.1,0.5-0.1c0,0,0,0,0,0
			c0,0,0.2,0,0.5-0.1c0.3-0.1,0.4-0.1,0.4-0.1c0,0,0,0,0.1,0c0.1,0,0.1,0,0,0c-0.1,0,0.3,0.1,1.2,0.1c0.9,0.1,1.6,0.1,2,0
			c0.4-0.1,0.8-0.2,1.1-0.4c0.3-0.2,0.4-0.3,0.4-0.4c0,0,0-0.1,0.1-0.3c0-0.1,0.1-0.3,0.1-0.4c0-0.1,0-0.1,0-0.1c0,0.1,0,0,0-0.1
			c0-0.1,0.1-0.6,0.3-1.4c0.1-0.8,0.2-1.5,0.3-2.2c0.1-0.6,0.1-1.2,0.2-1.8c0-0.6,0.1-2.4,0.1-5.6c0-3.1,0.1-6.6,0.3-10.6
			c0.2-4,0.6-7.9,1.2-11.7c0.6-3.8,1.1-7.3,1.5-10.5c0.4-3.1,0.5-5.6,0.5-7.5c-0.1-1.9,0-3.5,0.1-4.9c0.2-1.4,0.2-2.5,0.2-3.2
			c0-0.7-0.1-1.2-0.1-1.4c-0.1-0.2-0.1-0.4-0.1-0.5s0-0.2-0.1-0.2c0-0.1,0-0.1,0-0.1c0,0,0-0.1,0-0.2c0-0.2,0-0.6-0.1-1.4
			c-0.1-0.8-0.1-1.3-0.2-1.8c-0.1-0.4-0.1-0.7-0.2-0.8c-0.1-0.1-0.1-0.2-0.2-0.3c0-0.1-0.1-0.1,0-0.1c0,0,0-0.1-0.1-0.3
			c-0.1-0.2-0.4-1-1.1-2.3c0,0-0.1,0-0.1,0c-0.1,0-0.1,0.1-0.2,0.1"/>
		<path id="STROKE_2c50cef5-b797-438f-806c-747e65c594e1" class="st3" d="M67.4,151.8c-0.3-0.3-0.5-0.4-0.5-0.4
			c-0.1,0-0.2-0.3-0.3-0.9c0,0,0,0-0.1,0c-0.2,1.2-0.2,1.6-0.1,1.3c0,0.9,0,1.3,0,1c0,0.9,0,1.3,0,1.2c0,0.4,0,3.4,0.1,8.9
			c0.1,5.5,0,10.2-0.2,14.1c-0.2,3.9-0.3,7.1-0.4,9.6c0,2.5,0.1,4.9,0.3,7.2c0-0.6,0-0.9,0-0.7c0-0.1,0-0.3-0.1-0.6
			c-0.3-0.2-0.4-0.4-0.3-0.4c-0.3-1.2-0.4-1.6-0.3-1.2c-0.1-0.6-0.5-1.7-1.1-3.4c-0.6-1.7-2.8-5.6-6.4-11.7c-0.2,0.1,0.3,0.1,1.5,0
			c1.2-0.1,2.3-0.2,3.2-0.3c1-0.1,1.7-0.2,2.2-0.1c0.5,0,0.9,0.1,1.3,0.1c0.4,0.1,0.5,0.1,0.3,0c-0.2-0.1,0.7,0.2,2.5,0.7
			c1.8,0.5,4,1.2,6.6,1.9c-1.1,0-1.5,0-1.1,0c0.2,0,0,0-0.6,0.1c-0.6,0.1-1.4,0.9-2.5,2.4c-1.1,1.5-2,3.3-2.9,5.2
			c-0.9,2-1.5,4.1-2,6.5c0.2-0.1,0.4-0.3,0.6-0.5c0.2-0.3,0.5-0.6,0.8-1.1"/>
	</g>
</g>
</svg>
