<?xml version="1.0" encoding="utf-8"?>
<!-- Generator: Adobe Illustrator 22.1.0, SVG Export Plug-In . SVG Version: 6.00 Build 0)  -->
<svg version="1.1" id="Ebene_1" xmlns="http://www.w3.org/2000/svg" xmlns:xlink="http://www.w3.org/1999/xlink" x="0px" y="0px"
	 viewBox="0 0 283.5 283.5" style="enable-background:new 0 0 283.5 283.5;" xml:space="preserve">
<style type="text/css">
	.st0{fill:none;stroke:#171612;stroke-width:1.82;stroke-linecap:round;stroke-linejoin:round;}
	.st1{fill:none;stroke:#171612;stroke-width:1.872;stroke-linecap:round;stroke-linejoin:round;}
	.st2{fill:#FAC141;stroke:#FAC141;stroke-width:0.5;stroke-linecap:round;stroke-linejoin:round;}
	.st3{fill:none;stroke:#000000;stroke-width:3.543;stroke-linecap:round;stroke-linejoin:round;stroke-dasharray:0.354,5.314;}
	.st4{fill:none;stroke:#171612;stroke-width:1.806;stroke-linecap:round;stroke-linejoin:round;}
</style>
<g id="align-items--start">
	<path id="STROKE_6d7553e5-068a-4d55-81c4-e2536016ba35" class="st0" d="M4.9,25.7c0.3,0,0.6,0,0.9,0C6.1,25.7,5.8,25.7,4.9,25.7
		c0,1.8-0.2,38.1-0.5,109.1c0.5,0,2.7,0,6.4,0c3.8,0,7,0,9.6,0c2.6,0,8.2,0,16.8,0.1c8.6,0,15.2,0.1,19.8,0.1c4.6,0,8.3,0,11.1,0
		c2.8,0,9,0,18.8,0.1c9.8,0,18.1,0.1,24.9,0.1c6.8,0,11.8,0.1,15,0.1c3.2,0,5,0,5.3,0c0,0,0-8,0.1-23.8c0.1-15.9,0.1-28.1,0.2-36.6
		c0-8.5,0.1-14.8,0.1-18.9c0-4.1,0-7.4,0-9.8c0-2.4,0-9.1,0.1-20c-0.9,0-8.5,0-22.6-0.1C95.7,26.1,82.5,26,70.4,26
		c-12.1-0.1-25.9-0.1-41.4-0.2C13.5,25.8,5.5,25.7,4.9,25.7"/>
	<path id="STROKE_99a2ccde-d750-4d42-84ef-1eb5309888c9" class="st1" d="M155.4,26.3c-0.6,0-1.3,0-2,0c0,0,0.1,0,0.1,0
		c0,0-0.4,0-1.3,0c0,1,0,6-0.1,14.9c0,9-0.1,19.1-0.1,30.4c0,11.3-0.1,20.3-0.1,27.2c0,6.9-0.1,14.4-0.1,22.6c0,8.2-0.1,12.8-0.1,14
		l1.2,0c0,0-0.3,0-0.9,0c0.4,0,0.4,0,0.1,0c-0.3,0,2.9,0,9.7,0c6.7,0,12,0.1,15.8,0.1c3.8,0,7.7,0,11.8,0.1c4,0,13,0.1,26.8,0.1
		c13.8,0.1,25,0.1,33.4,0.1c8.4,0,15.5,0.1,21.2,0.1c5.7,0,8.6,0,8.7,0c0-0.9,0.2-37.3,0.5-109.1c-0.9,0-1.3,0-1,0
		c0.3,0-20.5-0.1-62.2-0.3c-41.8-0.2-63.2-0.3-64.4-0.3"/>
	<path id="STROKE_4536ac03-9234-4032-8b46-f4d5bb4b45e9" class="st2" d="M29.6,28c0,0.3-0.1,0.7-0.3,1.2c0,0-0.1,0-0.1,0
		c0-0.5,0-0.7,0-0.6c0-0.4,0-0.5-0.1-0.5c0,0,0-0.2-0.1-0.3c0,0-0.2,0-0.4,0c-0.1,0.9-0.2,1.1-0.2,0.6c0-0.4-0.1,2.3-0.2,8.3
		c-0.1,6-0.1,10.7-0.1,14.1c0,3.5,0,6,0.1,7.7c0.1,1.7,0.3,2.8,0.5,3.3c0.2,0.5,0.5,1.1,0.9,1.6c0.4,0.5,0.5,1,0.4,1.2
		c-0.1,0.3-0.1,0.6-0.1,1c0,0.4,0,0.6,0,0.6c0,0,0,0,0.1,0.1c0,0.1-0.2,2.2-0.7,6.3c0.4,0,0.7,0,0.6,0c1,0.1,1.4,0.1,1,0.1
		c0.9,0.1,1.3,0.2,1.1,0.1c0.7,0.2,3.8,0.6,9.4,1c5.6,0.5,10.1,0.8,13.3,1c3.3,0.2,5.7,0.2,7.4,0.1c1.6-0.1,3.4-0.4,5.3-0.8
		c1.9-0.4,3.8-0.6,5.6-0.5c1.9,0.1,3.4,0.2,4.6,0.3c1.2,0.1,2.1,0.3,2.9,0.5c0.8,0.2,3,0.1,6.7-0.4c0,0.1,0-0.4,0.1-1.4
		c0-1.1,0.3-3.1,0.8-6.3c0.5-3.1,0.9-5.9,1.1-8.3c0.2-2.4,0.5-4.9,0.8-7.5c0.3-2.6,0.5-4.9,0.5-6.7c0-1.8,0.3-4,0.8-6.5
		c0.5-2.5,1-5.8,1.3-10.1c0,0-0.1,0-0.1,0"/>
	<path id="STROKE_e35688a9-07ae-4957-9bcc-ce0f74b43e7a" class="st2" d="M202.6,27.2c-0.6,0.3-0.7,0.5-0.6,0.4
		c-0.7,1.1-1,1.5-0.9,1.2c0.1-0.4,0.1,1,0.1,4c0,3.1-0.1,5.9-0.2,8.6c-0.1,2.7-0.1,4.8-0.2,6.4c-0.1,1.6,0,3.2,0.2,4.8
		c0.2,1.6,0.6,3.3,1.2,4.9c0.4,0,0.6,0,0.6-0.1c0.1-0.1,0.3-0.3,0.6-0.6c0.3-0.3,1.7-0.2,4.1,0.2s4.5,0.7,6.4,0.8
		c1.8,0.1,3.4,0.2,4.8,0.2c1.4,0.1,2.5,0.1,3.4,0.1c0.9,0,1.4-0.1,1.6-0.3c0.2-0.2,0.4-0.5,0.6-0.8c0.2-0.3,0.3-0.5,0.3-0.6
		s0-0.2,0-0.2c0-0.1,0,0,0,0.1c0,0.1,0.3-1.5,0.9-4.7c0.6-3.3,1-6.4,1.2-9.3c0.2-2.9,0.4-5,0.5-6.4c0.1-1.4,0.1-2.4,0-3.2
		c-0.1-0.7-0.2-1.3-0.2-1.6c0-0.3-0.1-0.5-0.1-0.5c-0.1,0-0.2-0.1-0.4-0.3c-0.2-0.2-0.4-0.4-0.6-0.6c-0.1-0.2-0.3-0.3-0.4-0.5"/>
	<path id="STROKE_e2384e90-a66f-4a00-b185-8bf0e7194a0d" class="st3" d="M56.9,135.2l1.6-58.5"/>
	<path id="STROKE_4d0cd686-24f6-4c21-9f26-ad0d6480b3f5" class="st3" d="M58.6,79.2c-0.9,0-1.2,0-0.9,0c-0.8-0.1-1.1-0.1-0.8-0.1
		c0,0,0-0.1-0.1-0.2c-0.4,0.4-0.6,0.6-0.5,0.5c-0.7,1.5-1.9,3.6-3.8,6.4c-1.9,2.8-4,6.9-6.4,12.3c-0.1,0.2,0-0.1,0.2-0.7
		c-0.1-0.1,0.5-0.1,1.9,0c1.3,0.1,3.4,0.2,6.1,0.3c2.7,0.1,5.3,0.1,7.8-0.1c2.5-0.2,4.8-0.5,6.9-0.9c0.1-0.1,0.1,0.1,0,0.4
		c-0.1,0.4-0.1,0.7-0.2,0.9c-0.1,0.3-0.1,0.3-0.1,0.2c-0.1,0.1-0.3,0.2-0.5,0.3c0-0.8-0.7-2.8-2-5.9c-1.3-3.1-2.3-5.6-3.1-7.3
		c-0.7-1.7-1.4-3.1-1.9-4.2c-0.6-1.1-1.3-1.7-2.3-1.7c-1,0-1.7-0.1-2-0.2"/>
	<path id="STROKE_00cb4d34-dc21-4364-ac0c-cc71aa2d1825" class="st3" d="M214,59.5c-0.2,0-0.3,0-0.3,0c0,0-0.4,0.1-1.2,0.4
		c-0.1-0.1-0.1,3.5-0.2,10.9c-0.1,7.4-0.1,13.7,0,18.8s0.2,9,0.4,11.8c0.2,2.7,0.3,4.7,0.4,5.9c0,1.2,0,3.2,0.1,6c0,2.8,0,5.2,0,7
		c0,1.9,0,3.2-0.1,3.9c-0.1,0.7-0.2,1.8-0.4,3.2c-0.2,1.4-0.2,2.4-0.2,2.9c0,0.5,0,0.8,0,0.9c0,0.1,0,0.2,0,0.4s0,0.3,0,0.5
		c0,0.2,0,0.5,0,0.8c0,0.3,0,0.4,0,0.3c0-0.1,0-0.2,0-0.3c0-0.1,0,0.2,0,0.9c0-0.6,0.1-1.1,0.1-1.2c0.1-0.2,0.2-0.5,0.3-0.8"/>
	<path id="STROKE_a5e83c56-1795-4dc3-b91c-deefe996e2f6" class="st3" d="M211.8,58.2c0,0,0-0.2,0-0.4c-0.6,0.2-0.9,0.3-1,0.3
		c0,0,0,0,0.1,0c-0.2,0.6-0.4,0.9-0.4,0.7c-0.1-0.2-2.6,6.8-7.5,21c0.8,0,1.2,0,1.1,0c-0.1,0,0.7-0.2,2.3-0.9
		c1.6-0.6,3.5-0.5,5.8,0.4c2.3,0.9,4.1,1.6,5.4,2.3c1.3,0.7,2.3,1.1,3.1,1.2c0.8,0.1,1.2-0.3,1.3-1c0.1-0.8,0.2-1.6,0.2-2.5
		c0-0.9,0-1.4,0-1.6c0-0.2-0.4-0.9-1.1-2.2c-0.8-1.3-1.8-3.6-3.1-6.8c-1.3-3.2-2.1-6.3-2.3-9.4c-0.2-3.1-0.3-4.9-0.3-5.3"/>
	<g>
		<path id="STROKE_c9301d96-645d-41a2-abeb-a7267a176113" class="st4" d="M6.6,152.2c-0.3,0-0.6,0-1.1,0c0,0,0.1,0,0.1,0
			c0.1,0-0.4,0-1.4,0c0,1.3,0,4.9,0,10.6c0,5.8,0,10.8-0.1,15.1c0,4.3-0.1,18.7-0.2,43.3c-0.1,24.6-0.2,37.9-0.2,40.1
			c1,0,2.1,0,3.2,0c1.1,0,5,0,11.9,0.1c6.8,0,12.1,0.1,15.9,0.1c3.8,0,6.6,0,8.5,0c1.9,0,11.6,0,29.2,0.1
			c17.6,0.1,31.8,0.1,42.6,0.2c10.9,0,16.3,0.1,16.4,0.1c0-0.4,0.2-36.8,0.5-109.1c-0.9,0-5.3,0-13.4-0.1c-8.1,0-17.5-0.1-28.2-0.1
			c-10.8,0-19.7-0.1-26.9-0.1s-12.5-0.1-15.9-0.1c-3.4,0-7.3,0-11.8-0.1s-10.7,0-18.9-0.1s-12.3-0.1-12.5-0.1"/>
		<path id="STROKE_89befb6d-0286-4aa3-8d40-c932762ceb50" class="st2" d="M31.1,152.1c0.4-0.5,0.7-0.8,0.7-0.8c0-0.1,0-0.1,0,0
			c0,0.1,0,0,0.2-0.3c-0.3,0.2-0.4,0.3-0.3,0.2c0.1-0.1,0,0-0.1,0.3C31.4,151.7,31.2,151.9,31.1,152.1c-0.1,0.3-0.2,0.4-0.1,0.4
			c0-0.1,0-0.1,0,0c0,0.1-0.1,0.2-0.1,0.4c-0.1,0.2-0.1,0.3-0.1,0.3c0,0,0,0,0,0c0,0,0,0,0-0.1c0-0.1,0-0.1,0,0c0,0.1,0,0.1,0,0.2
			c0,0.1-0.1,1.4-0.2,4c-0.1,2.6-0.2,5.1-0.3,7.4c-0.1,2.3-0.1,4.2-0.2,5.6c0,1.4-0.2,5.7-0.5,12.8c-0.3,7.1-0.7,12.5-1,16.2
			c-0.4,3.7-0.6,7-0.8,9.9c-0.2,2.9-0.2,5.2-0.1,7.1c0.1,1.9,0.1,3.6,0.2,5.2c0.1,1.6,0.3,2.5,0.6,2.7c0.3,0.2,0.6,0.3,0.8,0.3
			c0.2,0,0.3,0,0.3,0c0,0,0.2,0,0.7,0c0.5,0,0.7,0,0.7,0.1c0,0,0.2,0.1,0.5,0.2c0.3,0.1,0.7,0.3,1.2,0.5c0.5,0.2,1.3,0.4,2.3,0.4
			c1,0,1.8,0.1,2.4,0.2c0.6,0.1,2,0,4.3-0.1c2.3-0.2,4.9-0.7,7.8-1.6c2.9-0.9,5.5-1.7,7.9-2.3c2.4-0.6,4.8-1,7.2-1.3
			c2.4-0.2,5.5,0.2,9.3,1.3c3.8,1.1,6.6,2,8.6,2.6c1.9,0.7,3.4,1,4.5,1.1c1.1,0.1,2.2,0.4,3.4,0.9c0,0,0,0.1,0,0.2
			c0.9,0.1,1.2,0.1,0.9,0.1c0.7,0,1,0,1,0c0,0,0,0,0,0c0.5-0.1,0.7-0.2,0.7-0.3c0.6-0.4,1.6-0.7,2.9-0.7c0.2-0.1,0.3-3.6,0.3-10.5
			c0-6.9-0.1-12.1-0.1-15.5c-0.1-3.4,0-5.9,0.2-7.5c0.2-1.6,0.3-4,0.4-7.3c0.1-3.3,0.1-6.2,0.2-8.6c0-2.5,0.1-5,0.3-7.5
			c0.2-2.5,0.4-5.5,0.6-9c0,0,0,0.1,0,0.2c0-1.1,0-1.5,0-1.2c0-0.3,0-1.8,0.2-4.6c-0.3,0.2-0.7,0.6-1,1.1c-0.3,0.5-0.7,0.9-1,1.3"/>
		<path id="STROKE_6757e140-74a6-4879-8ef6-dd1371c1f565" class="st3" d="M67.2,222.1c0,0,0-0.4,0-1.2c-0.3,0.8-0.4,1.1-0.3,0.9
			c-0.3,0.8-0.3,1.2-0.3,1c0,0-0.1,0.3-0.1,0.8c-0.1,0.5-0.1,0.7-0.1,0.5c0-0.1,0-0.2,0-0.1c0,0.1,0,0.4-0.1,0.8c0,0.4,0,0.5,0,0.4
			c0-0.2,0,0.4,0,1.8c0,1.4,0,4.1,0,8.2c0,4.1,0,12.3,0.1,24.4c0,0,0.1,0,0.1,0c0.2-1.1,0.2-2.2,0.2-3.2c0-1-0.1-1.7-0.1-2.2"/>
		<path id="STROKE_8344a954-badb-42ed-8bdb-7aaec1c05f36" class="st3" d="M65.1,223.9c0.2,0.4,0,0.1-0.4-1c0.1-0.1,0.1-0.1,0-0.1
			s-0.1,0.1,0,0.1c0,0,0,0,0,0c0,0-0.1,0-0.2,0c-0.1,0-0.4,0.2-0.8,0.6c-0.4,0.4-0.6,0.5-0.5,0.5c0.1,0,0.1,0.1,0,0.3
			c-0.1,0.2-0.2,0.3-0.2,0.4c0,0.1-0.5,1.4-1.4,3.9c-0.9,2.5-1.6,5.4-2,8.6c0.7,0,1,0.1,0.9,0c0.9-0.2,1.3-0.4,1.1-0.4
			c0.6-0.5,2-0.9,4.1-1c2.1-0.1,4.4,0.2,6.8,1c0-0.9,0-1.2,0-1.1c0.3-0.3,0.1-1.6-0.7-3.9c-0.7-2.3-1.5-4.2-2.3-5.7
			c-0.8-1.5-1.2-3.6-1-6.3c0,0,0,0-0.1,0"/>
	</g>
</g>
</svg>
