<?xml version="1.0" encoding="utf-8"?>
<!-- Generator: Adobe Illustrator 22.1.0, SVG Export Plug-In . SVG Version: 6.00 Build 0)  -->
<svg version="1.1" id="Ebene_1" xmlns="http://www.w3.org/2000/svg" xmlns:xlink="http://www.w3.org/1999/xlink" x="0px" y="0px"
	 viewBox="0 0 283.5 283.5" style="enable-background:new 0 0 283.5 283.5;" xml:space="preserve">
<style type="text/css">
	.st0{fill:none;stroke:#171612;stroke-width:1.82;stroke-linecap:round;stroke-linejoin:round;}
	.st1{fill:none;stroke:#171612;stroke-width:1.872;stroke-linecap:round;stroke-linejoin:round;}
	.st2{fill:#FAC141;stroke:#FAC141;stroke-width:0.5;stroke-linecap:round;stroke-linejoin:round;}
	.st3{fill:none;stroke:#000000;stroke-width:3.543;stroke-linecap:round;stroke-linejoin:round;stroke-dasharray:0.354,5.314;}
	.st4{fill:none;stroke:#171612;stroke-width:1.806;stroke-linecap:round;stroke-linejoin:round;}
</style>
<g id="align-items--center">
	<path id="STROKE_d862a0a7-fe03-49b4-9369-3749a56169a6" class="st0" d="M5.6,24.7c0.3,0,0.6,0,0.9,0C6.8,24.7,6.5,24.7,5.6,24.7
		c0,1.8-0.2,38.1-0.5,109.1c0.5,0,2.7,0,6.4,0c3.8,0,7,0,9.6,0c2.6,0,8.2,0,16.8,0.1c8.6,0,15.2,0.1,19.8,0.1c4.6,0,8.3,0,11.1,0
		c2.8,0,9,0,18.8,0.1c9.8,0,18.1,0.1,24.9,0.1c6.8,0,11.8,0.1,15,0.1c3.2,0,5,0,5.3,0c0,0,0-8,0.1-23.8c0.1-15.9,0.1-28.1,0.2-36.6
		c0-8.5,0.1-14.8,0.1-18.9c0-4.1,0-7.4,0-9.8c0-2.4,0-9.1,0.1-20c-0.9,0-8.5,0-22.6-0.1c-14.2-0.1-27.4-0.1-39.5-0.2
		c-12.1-0.1-25.9-0.1-41.4-0.2C14.3,24.7,6.2,24.7,5.6,24.7"/>
	<path id="STROKE_8fbc614a-7f26-492e-b517-cc10e3bda006" class="st1" d="M156.1,25.2c-0.6,0-1.3,0-2,0c0,0,0.1,0,0.1,0
		c0,0-0.4,0-1.3,0c0,1,0,6-0.1,14.9c0,9-0.1,19.1-0.1,30.4c0,11.3-0.1,20.3-0.1,27.2c0,6.9-0.1,14.4-0.1,22.6c0,8.2-0.1,12.8-0.1,14
		l1.2,0c0,0-0.3,0-0.9,0c0.4,0,0.4,0,0.1,0c-0.3,0,2.9,0,9.7,0c6.7,0,12,0.1,15.8,0.1c3.8,0,7.7,0,11.8,0.1c4,0,13,0.1,26.8,0.1
		c13.8,0.1,25,0.1,33.4,0.1c8.4,0,15.5,0.1,21.2,0.1c5.7,0,8.6,0,8.7,0c0-0.9,0.2-37.3,0.5-109.1c-0.9,0-1.3,0-1,0
		c0.3,0-20.5-0.1-62.2-0.3c-41.8-0.2-63.2-0.3-64.4-0.3"/>
	<path id="STROKE_a286d9bf-39dd-4bb5-913f-bda9a144058b" class="st2" d="M36.8,61.7c0,0.4,0-0.2-0.1-1.8c-0.6-0.1-0.9-0.1-0.7-0.1
		c-0.3,0.8-0.4,1.1-0.3,0.8c-0.2,0.7-0.5,4-0.9,9.8c-0.4,5.8-0.6,10.3-0.7,13.3c-0.1,3,0,5.3,0.2,6.9c0.2,1.6,0.3,3.2,0.3,4.8
		c0,1.6-0.2,3.8-0.7,6.4c0.2,0.2,2.3,0.2,6.3,0.1c4-0.1,7.2-0.1,9.8,0c2.6,0.1,5.2,0.3,7.8,0.6c2.6,0.3,4.7,0.4,6.2,0.4
		c1.6,0,3-0.1,4.2-0.3c1.2-0.2,2.6-0.3,4-0.3c1.5,0,3.1,0.3,4.8,0.9c1.8,0.6,3.1,0.9,3.9,0.9c0.8,0.1,2.1-0.1,3.7-0.4
		c1.6-0.3,3.3-0.3,4.9,0c0-0.4,0-0.6,0-0.6c0.1-0.6,0.1-0.9,0.1-0.9c-0.1,0.5,0.2-2,0.8-7.8c0.6-5.7,1-10.4,1.4-14.1
		c0.3-3.7,0.5-6.6,0.5-8.7c0-2.1,0-4.1,0.1-6c0.1-1.8,0.1-3.1,0.2-3.9c0.1-0.7,0.1-1.2,0.1-1.5c0-0.2,0-0.4,0-0.4c0-0.1,0-0.1,0-0.2
		c0,0,0-0.1,0-0.1c0,0,0,0,0,0.1c0,0.1,0-0.2,0-0.9c0-0.7,0.1-1.4,0.3-2.2c0.2-0.8,0.4-1.4,0.5-1.6"/>
	<path id="STROKE_b39bc672-f3d6-4b94-8128-b4d4ef60249b" class="st2" d="M205.4,68.9c0,0,0-0.6,0-1.7c-1.1,0.3-1.4,0.4-1.1,0.3
		c-0.5,0.5-0.6,0.7-0.5,0.6c-1.4,1.1-1.7,8.7-0.8,22.8c0.5-0.3,0.8-0.5,0.6-0.5c0.4-0.5,0.6-0.8,0.6-0.7c0.1-0.1,0.3-0.3,0.7-0.7
		c0.4-0.3,1-0.5,1.9-0.4c0.9,0,1.5,0.1,1.8,0.3c0.3,0.1,0.8,0.2,1.5,0.3c0.7,0.1,1.6,0.1,2.8,0c1.2-0.1,2.4,0,3.5,0.3
		c1.2,0.3,2.1,0.5,2.7,0.8c0.6,0.3,1.2,0.4,1.6,0.5c0.4,0,0.8,0,1.1,0c0.3,0,0.4-0.1,0.3-0.1c-0.1,0-0.1-0.1,0,0
		c0.1,0,0.2,0.1,0.4,0.3c0.2,0.1,0.4,0.3,0.6,0.5c0.2,0.2,0.3,0.3,0.2,0.3c0,0,0.1,0,0.2,0c0-0.3,0-0.3,0-0.1c0,0.2,0,0,0.1-0.7
		c0.1-0.7,0.3-2.3,0.5-4.7c0.2-2.4,0.4-4,0.4-4.7c0-0.7,0.1-2,0.1-3.7c0-1.8,0-3.4,0.2-5c0.1-1.6,0.2-3.4,0.2-5.6
		c-0.1,0-0.2,0-0.3,0.1c-0.1,0.1-0.3,0.2-0.4,0.4"/>
	<path id="STROKE_8a71bba1-caa1-4c58-a5a8-78aa1275e165" class="st3" d="M66.6,105.2c0-0.8,0-1.3,0-1.3c-0.2-0.6-0.2-0.9-0.2-0.8
		c-0.1-0.1-0.2-0.3-0.4-0.6c0,0.2-0.3,2.9-0.8,8.1c-0.5,5.1-0.9,9.4-1,12.8c-0.2,3.4,0,5.8,0.4,7.4c0.5,1.5,0.8,2.4,0.9,2.6"/>
	<path id="STROKE_9ae19f2e-6cab-4c21-b41b-e852ff47a6fe" class="st3" d="M65.8,104.2C65.8,104.3,65.8,104.3,65.8,104.2
		c-0.1,0-0.3-0.2-0.7-0.5c-0.4-0.3-0.7-0.5-0.7-0.5c0,0-0.1,0-0.1,0c0,0,0,0,0,0c0,0-0.2,0-0.5,0c-0.3,0-0.4,0-0.4-0.1
		c0.1,0-0.1,0.2-0.5,0.6c-0.4,0.4-0.8,0.9-1.1,1.3c-0.3,0.5-1,1.6-2.2,3.3c-1.2,1.8-2,4.2-2.4,7.4c0.3,0.3,1.6,0.6,4.1,0.9
		c2.5,0.3,4.4,0.5,5.7,0.5c1.4,0.1,2.3,0,2.7-0.2c0.5-0.2,0.8-0.3,1-0.3c0.2,0,0.6-0.7,1.1-2.1c0.5-1.4,0.5-2.7,0-4
		c-0.5-1.3-1-2.2-1.4-2.7c-0.4-0.5-0.7-0.9-1-1.1c-0.2-0.3-0.5-0.5-0.8-0.6c-0.3-0.1-0.6-0.3-0.8-0.4c-0.3-0.1-0.5-0.2-0.7-0.3
		c-0.2-0.1-0.4-0.1-0.7-0.2"/>
	<path id="STROKE_84fcd5b9-2046-4b00-ad9f-5e4568f35f8a" class="st3" d="M68.9,29c0,0.3,0,0.1,0.1-0.4c0.1-0.5-0.8-1.7-2.4-3.5
		C66,25.4,65.1,37,63.9,60c0.1-0.5,0.4-1.7,0.8-3.7c-0.2-0.1-0.2-0.1-0.2,0c0.1,0.1,0,0-0.4-0.3c-0.3-0.3-0.5-0.5-0.6-0.6
		c-0.1-0.1-0.1-0.2-0.1-0.2c0,0,0,0,0.1,0c0,0,0,0-0.2-0.2c-0.1-0.2-0.6-1-1.3-2.5c-0.7-1.4-2-4.1-3.9-7.9c0,0,0,0.2,0,0.4
		c0.8,0,1,0,0.7-0.1c-0.3-0.1,4.6,0.3,14.7,1.1c0.3,0.2,0.1,0.5-0.5,0.8c-0.7,0.3-1.4,0.8-2.2,1.4c-0.8,0.6-1.4,1.3-1.7,1.9
		c-0.3,0.6-0.7,1.3-1.2,2c-0.5,0.7-1.5,2.8-2.9,6.4c0.2-0.1,0.4-0.1,0.6-0.2"/>
	<path id="STROKE_adb4c39e-c30e-47c2-b813-0b071ad396e5" class="st3" d="M217.1,29.2c-0.1,1,0-0.2,0.2-3.4c0.1,0-0.3,0-1.1,0
		c-0.2-0.1-0.9,3.9-2,12c-1.2,8.1-1.9,18-2.3,29.6c0.8,0.2,1.1,0.2,0.9,0.2c0.1-0.3,0.1-0.5,0.1-0.4c0.1-0.1,0.1-0.1,0-0.2
		c-0.1-0.1-0.1-0.1-0.1,0s0,0-0.3-0.2c-0.2-0.2-0.5-0.4-0.7-0.5c-0.2-0.2-0.3-0.3-0.3-0.3c0,0,0,0,0,0c0,0-0.1-0.1-0.3-0.2
		c-0.2-0.2-0.4-0.4-0.7-0.8c-0.3-0.4-0.6-0.9-1-1.6c-0.4-0.6-0.5-0.9-0.3-0.8c0.2,0.1-1.6-2.5-5.4-7.7c-0.1,0.3,0.4,0.2,1.7-0.4
		c1.3-0.6,2.9-1,4.9-1.2c2-0.2,3.7-0.2,5.1,0.1c1.4,0.3,3.2,1,5.2,2.1c0,0,0,0.1,0,0.1c-0.6-0.1-1.7,0.9-3.3,2.9
		c-1.6,2-2.8,3.9-3.6,5.6c-0.8,1.7-1.2,2.9-1.1,3.6c0.1,0.7,0.2,1.1,0.4,1.2"/>
	<path id="STROKE_b268ef9b-e253-40d6-b458-be3bf8344fc0" class="st3" d="M214.4,94.5c-0.5,0-0.7,0-0.7,0c-0.5-0.3-0.6-0.5-0.5-0.4
		c-0.4-0.8-0.5-1-0.4-0.7c0.1-0.2,0.1-0.3,0-0.2c-0.1,0.1-0.3,0.4-0.6,0.9c-0.3,0.5-0.4,1.3-0.5,2.2c-0.1,1-0.2,2-0.4,3
		c-0.2,1-0.7,11.6-1.5,31.8c0-0.5,0-0.7,0-0.7c0-0.7,0-1.1,0-1.1c0,0,0-0.1,0-0.1c0,0,0.1-0.2,0.1-0.3"/>
	<path id="STROKE_2ea0974b-92ab-453e-b1e5-0cbbe91fec4c" class="st3" d="M212,93.7c0,0.2-0.3-0.6-0.7-2.4c-0.3,0-1.5,1.9-3.7,5.6
		c-2.2,3.7-4.4,7.7-6.5,12c1.1,0,1.5,0,1.2,0c1.2-0.4,3.1-0.3,5.8,0.4c2.7,0.7,5.8,1.3,9.4,1.7c0,0.4,0.1,0.3,0.3-0.3
		c0.1-0.5,0.3-1,0.4-1.4c0.1-0.4,0.1-0.8-0.1-1.2c-0.1-0.4-0.2-0.6-0.1-0.5c0.1,0.1-0.1-0.1-0.4-0.4c-0.3-0.4-1-1.7-2-4.1
		c-1-2.4-1.9-4.5-2.5-6.5c-0.6-1.9-0.8-3.5-0.6-4.7c0.2-1.2,0.5-1.9,0.7-2.3"/>
	<g>
		<path id="STROKE_4c345e88-8587-4852-80dc-a140d9ede4e8" class="st4" d="M7.4,150.5c-0.3,0-0.6,0-1.1,0c0,0,0.1,0,0.1,0
			c0.1,0-0.4,0-1.4,0c0,1.3,0,4.9,0,10.6c0,5.8,0,10.8-0.1,15.1c0,4.3-0.1,18.7-0.2,43.3c-0.1,24.6-0.2,37.9-0.2,40.1
			c1,0,2.1,0,3.2,0c1.1,0,5,0,11.9,0.1c6.8,0,12.1,0.1,15.9,0.1c3.8,0,6.6,0,8.5,0s11.6,0,29.2,0.1c17.6,0.1,31.8,0.1,42.6,0.2
			c10.9,0,16.3,0.1,16.4,0.1c0-0.4,0.2-36.8,0.5-109.1c-0.9,0-5.3,0-13.4-0.1c-8.1,0-17.5-0.1-28.2-0.1c-10.8,0-19.7-0.1-26.9-0.1
			c-7.2,0-12.5-0.1-15.9-0.1c-3.4,0-7.3,0-11.8-0.1c-4.4,0-10.7,0-18.9-0.1c-8.2,0-12.3-0.1-12.5-0.1"/>
		<path id="STROKE_fefd57d1-2684-4704-912a-22f7100b585e" class="st2" d="M28.3,171.6c0-0.6,0-0.9,0-0.9c0-1.1,0-1.5,0-1.2
			c0,0,0.1-0.9,0.4-2.7c0,0.2,0,0.2,0,0c0.1-0.2,0,0.2-0.2,1.2c-0.2,1-0.4,2-0.6,3c-0.2,0.9-0.3,1.5-0.3,1.9c0,0.3,0,0.6-0.1,0.9
			c0,0.3,0,0.3-0.1,0c-0.1-0.3-0.1,1.8-0.1,6.3c0,4.5,0,9.7,0.1,15.6c0,5.9,0.1,10.4,0.2,13.5c0.1,3,0,5.7-0.2,8.1
			c-0.2,2.4-0.6,4.6-1,6.7c-0.4,2.1-0.7,3.7-0.9,4.8c-0.1,1.1-0.2,2.5-0.2,4.1c0,1.6,0,2.9,0.1,3.8c0.1,1,0.2,1.5,0.3,1.7
			c0.2,0.2,0.3,0.3,0.6,0.4c0.2,0.1,0.4,0.2,0.7,0.3c0.2,0.1,0.5,0.1,0.9,0.1c0.4,0,0.5,0,0.4,0c-0.1,0,0.6,0.1,2.1,0.3
			c1.5,0.2,3.6-0.1,6.3-0.8s5.2-1.2,7.4-1.4c2.3-0.2,5.3-0.4,9.2-0.6c3.9-0.2,6.9-0.4,9.1-0.6c2.2-0.2,3.7-0.4,4.6-0.4
			c0.9,0,2.6,0,5.2,0.1s4.6,0.1,6,0c1.5-0.1,2.7,0,3.7,0.1c1,0.1,1.6,0.3,1.9,0.5c0.3,0.2,0.5,0.3,0.7,0.4c0.2,0,0.4,0.1,0.6,0.2
			c0.3,0.1,0.8,0.1,1.8,0c0.9-0.1,1.9,0.2,2.9,0.9c1,0.7,1.8,1.2,2.5,1.5c0.7,0.3,1.4,0.4,2.1,0.3c0.7-0.1,1.1-0.1,1.4-0.1
			c0.3,0,0.6,0,0.9,0c0.3,0,0.5,0,0.7,0c0.2,0,0.3,0,0.3-0.1c0,0,0-0.1,0,0c0,0,0.1,0,0.3,0c0.2,0,0.6-0.4,1.1-1.1
			c0.6-0.7,1-2,1.2-4c0.3-2,0.4-3.6,0.3-4.9c0-1.2,0.1-4.5,0.4-9.6c0.3-5.2,0.5-9.2,0.7-12.1c0.2-2.9,0.3-5.9,0.3-9
			c0-3.1,0-5.7,0-7.9c0-2.2,0-3.9,0-5.2c0-1.3,0-2.1,0-2.4c0-0.3,0-0.6,0-0.9c0-0.2,0-0.5,0-0.9c0-0.4,0.1-0.7,0.1-1.1
			c0-0.4,0-0.7,0.1-1.1c0-0.4,0.1-0.9,0.2-1.4c0.1-0.6,0.2-1.2,0.3-1.8c0.1-0.6,0.1-1.1,0.2-1.5c0-0.4,0-0.8,0-1.1
			c0-0.3,0-0.5,0-0.5c0,0,0,0,0,0c0,0,0,0,0,0.1c0,0.1,0-0.2-0.1-0.8h0c0,0-0.1-0.1-0.2-0.1v0c0,0-0.1,0-0.1,0c-0.1,0-0.2,0-0.2,0.1
			"/>
		<path id="STROKE_862c2902-7929-46a4-af41-2b40f6f7b361" class="st3" d="M70.3,153.5c0.1,0.1-0.1-0.5-0.6-1.8
			c-0.1-0.2-0.2,1.4-0.3,4.9c-0.1,3.5-0.3,6.4-0.4,8.9c-0.1,2.4-0.1,5.1-0.1,7.9c-0.1-0.5-0.1-1,0.1-1.7c0.2-0.6-0.2-1.8-1.3-3.5
			c-1-1.7-2.1-3.4-3.2-5.3c-0.1-0.3,0.1,0.7,0.5,2.8c0.4,2.1,1,3.9,1.8,5.3c0.8,1.4,1.4,2.4,1.8,2.9c0.4,0.6,0.8,0.9,1.2,1
			c0.4,0.1,0.6,0.1,0.6,0.1c0,0,0.1,0,0.2,0.1c0.1,0.1,0.3,0.1,0.4,0.1c0.1,0,0.3-0.1,0.4-0.1c0.2,0,0.5-0.4,0.9-0.9
			c0.4-0.6,0.8-1.3,1.1-2.1c0.3-0.8,1-4.2,2.3-10.1c-1.1,0-1.4,0-1.1,0c-0.1-0.7-1.5-0.6-4.3,0.5c-2.8,1.1-4.2,1.7-4.4,1.8"/>
		<path id="STROKE_ad52fc73-b605-475d-bec1-5baffc45b1e5" class="st3" d="M69.3,237.8c0.1,0-0.2,0-0.8,0c-0.2,0-0.3,2.5-0.4,7.4
			c-0.1,4.9-0.3,8.7-0.6,11.5c-0.3,2.8-0.6,4.3-0.8,4.6"/>
		<path id="STROKE_b88de42b-2d33-425b-99d2-9383da51c6a9" class="st3" d="M69,238c-0.1-0.5-0.2-0.7-0.3-0.6
			c-0.4-0.4-0.6-0.6-0.5-0.5c0.1,0,0.1,0,0.1,0c0,0-0.1-0.1-0.3-0.2c-0.2-0.1-0.5-0.2-0.8-0.2c-0.3,0-0.5-0.1-0.5,0c0,0,0,0,0,0.1
			c0,0-0.1,0-0.3-0.1c-0.2-0.1-0.6,0.4-1.3,1.5c-0.7,1-1.1,2-1.4,2.9s-0.4,1.7-0.4,2.3c0,0.7,0.2,1.2,0.7,1.6
			c0.4,0.4,0.6,0.6,0.6,0.5c-0.1-0.1,0.1,0,0.4,0.2c0.3,0.2,1.1,0.5,2.4,0.9s4.4,0.7,9.3,1c0.4-0.2,0.3-0.8-0.3-2s-1.3-2.3-2.4-3.4
			c-1-1.1-2.1-2.1-3.2-3.1c-1.1-1-1.6-2.3-1.6-3.8c0-1.5,0-2.5,0.1-2.7"/>
	</g>
</g>
</svg>
