<?xml version="1.0" encoding="utf-8"?>
<!-- Generator: Adobe Illustrator 22.1.0, SVG Export Plug-In . SVG Version: 6.00 Build 0)  -->
<svg version="1.1" id="Ebene_1" xmlns="http://www.w3.org/2000/svg" xmlns:xlink="http://www.w3.org/1999/xlink" x="0px" y="0px"
	 viewBox="0 0 424.2 114.3" style="enable-background:new 0 0 424.2 114.3;" xml:space="preserve">
<style type="text/css">
	.st0{fill:none;stroke:#171612;stroke-width:1.82;stroke-linecap:round;stroke-linejoin:round;}
	.st1{fill:none;stroke:#171612;stroke-width:1.872;stroke-linecap:round;stroke-linejoin:round;}
	.st2{fill:none;stroke:#171612;stroke-width:1.806;stroke-linecap:round;stroke-linejoin:round;}
	.st3{fill:#FAC141;stroke:#FAC141;stroke-width:0.5;stroke-linecap:round;stroke-linejoin:round;}
	.st4{fill:none;stroke:#000000;stroke-width:3.543;stroke-linecap:round;stroke-linejoin:round;stroke-dasharray:0.354,5.314;}
</style>
<g>
	<path id="STROKE_d862a0a7-fe03-49b4-9369-3749a56169a6" class="st0" d="M2.7,0.9c0.3,0,0.6,0,0.9,0C3.8,0.9,3.5,0.9,2.7,0.9
		c0,1.8-0.2,38.1-0.5,109.1c0.5,0,2.7,0,6.4,0c3.8,0,7,0,9.6,0c2.6,0,8.2,0,16.8,0.1c8.6,0,15.2,0.1,19.8,0.1c4.6,0,8.3,0,11.1,0
		c2.8,0,9,0,18.8,0.1c9.8,0,18.1,0.1,24.9,0.1c6.8,0,11.8,0.1,15,0.1c3.2,0,5,0,5.3,0c0,0,0-8,0.1-23.8c0.1-15.9,0.1-28.1,0.2-36.6
		c0-8.5,0.1-14.8,0.1-18.9c0-4.1,0-7.4,0-9.8c0-2.4,0-9.1,0.1-20c-0.9,0-8.5,0-22.6-0.1C93.5,1.3,80.3,1.2,68.2,1.2
		C56,1.1,42.2,1.1,26.8,1C11.3,0.9,3.3,0.9,2.7,0.9"/>
	<path id="STROKE_8fbc614a-7f26-492e-b517-cc10e3bda006" class="st1" d="M153.1,1.5c-0.6,0-1.3,0-2,0c0,0,0.1,0,0.1,0
		c0,0-0.4,0-1.3,0c0,1,0,6-0.1,14.9c0,9-0.1,19.1-0.1,30.4c0,11.3-0.1,20.3-0.1,27.2c0,6.9-0.1,14.4-0.1,22.6c0,8.2-0.1,12.8-0.1,14
		l1.2,0c0,0-0.3,0-0.9,0c0.4,0,0.4,0,0.1,0c-0.3,0,2.9,0,9.7,0c6.7,0,12,0.1,15.8,0.1c3.8,0,7.7,0,11.8,0.1c4,0,13,0.1,26.8,0.1
		c13.8,0.1,25,0.1,33.4,0.1c8.4,0,15.5,0.1,21.2,0.1c5.7,0,8.6,0,8.7,0c0-0.9,0.2-37.3,0.5-109.1c-0.9,0-1.3,0-1,0
		c0.3,0-20.5-0.1-62.2-0.3c-41.8-0.2-63.2-0.3-64.4-0.3"/>
	<path id="STROKE_4c345e88-8587-4852-80dc-a140d9ede4e8" class="st2" d="M297.6,3.7c-0.3,0-0.6,0-1.1,0c0,0,0.1,0,0.1,0
		c0.1,0-0.4,0-1.4,0c0,1.3,0,4.9,0,10.6c0,5.8,0,10.8-0.1,15.1c0,4.3-0.1,18.7-0.2,43.3c-0.1,24.6-0.2,37.9-0.2,40.1
		c1,0,2.1,0,3.2,0c1.1,0,5,0,11.9,0.1c6.8,0,12.1,0.1,15.9,0.1c3.8,0,6.6,0,8.5,0c1.9,0,11.6,0,29.2,0.1c17.6,0.1,31.8,0.1,42.6,0.2
		c10.9,0,16.3,0.1,16.4,0.1c0-0.4,0.2-36.8,0.5-109.1c-0.9,0-5.3,0-13.4-0.1S392,4.1,381.2,4.1C370.4,4,361.4,4,354.3,4
		c-7.2,0-12.5-0.1-15.9-0.1c-3.4,0-7.3,0-11.8-0.1c-4.4,0-10.7,0-18.9-0.1c-8.2,0-12.3-0.1-12.5-0.1"/>
	<path id="STROKE_a286d9bf-39dd-4bb5-913f-bda9a144058b" class="st3" d="M33.9,37.9c0,0.4,0-0.2-0.1-1.8C33.1,36,32.9,36,33.1,36
		c-0.3,0.8-0.4,1.1-0.3,0.8c-0.2,0.7-0.5,4-0.9,9.8C31.5,52.5,31.2,57,31.1,60c-0.1,3,0,5.3,0.2,6.9c0.2,1.6,0.3,3.2,0.3,4.8
		c0,1.6-0.2,3.8-0.7,6.4c0.2,0.2,2.3,0.2,6.3,0.1c4-0.1,7.2-0.1,9.8,0c2.6,0.1,5.2,0.3,7.8,0.6c2.6,0.3,4.7,0.4,6.2,0.4
		c1.6,0,3-0.1,4.2-0.3c1.2-0.2,2.6-0.3,4-0.3c1.5,0,3.1,0.3,4.8,0.9c1.8,0.6,3.1,0.9,3.9,0.9c0.8,0.1,2.1-0.1,3.7-0.4
		c1.6-0.3,3.3-0.3,4.9,0c0-0.4,0-0.6,0-0.6c0.1-0.6,0.1-0.9,0.1-0.9c-0.1,0.5,0.2-2,0.8-7.8c0.6-5.7,1-10.4,1.4-14.1
		c0.3-3.7,0.5-6.6,0.5-8.7c0-2.1,0-4.1,0.1-6c0.1-1.8,0.1-3.1,0.2-3.9c0.1-0.7,0.1-1.2,0.1-1.5c0-0.2,0-0.4,0-0.4c0-0.1,0-0.1,0-0.2
		c0,0,0-0.1,0-0.1c0,0,0,0,0,0.1c0,0.1,0-0.2,0-0.9c0-0.7,0.1-1.4,0.3-2.2c0.2-0.8,0.4-1.4,0.5-1.6"/>
	<path id="STROKE_b39bc672-f3d6-4b94-8128-b4d4ef60249b" class="st3" d="M202.4,45.2c0,0,0-0.6,0-1.7c-1.1,0.3-1.4,0.4-1.1,0.3
		c-0.5,0.5-0.6,0.7-0.5,0.6c-1.4,1.1-1.7,8.7-0.8,22.8c0.5-0.3,0.8-0.5,0.6-0.5c0.4-0.5,0.6-0.8,0.6-0.7c0.1-0.1,0.3-0.3,0.7-0.7
		c0.4-0.3,1-0.5,1.9-0.4c0.9,0,1.5,0.1,1.8,0.3c0.3,0.1,0.8,0.2,1.5,0.3c0.7,0.1,1.6,0.1,2.8,0c1.2-0.1,2.4,0,3.5,0.3
		c1.2,0.3,2.1,0.5,2.7,0.8c0.6,0.3,1.2,0.4,1.6,0.5c0.4,0,0.8,0,1.1,0c0.3,0,0.4-0.1,0.3-0.1c-0.1,0-0.1-0.1,0,0
		c0.1,0,0.2,0.1,0.4,0.3c0.2,0.1,0.4,0.3,0.6,0.5c0.2,0.2,0.3,0.3,0.2,0.3c0,0,0.1,0,0.2,0c0-0.3,0-0.3,0-0.1c0,0.2,0,0,0.1-0.7
		c0.1-0.7,0.3-2.3,0.5-4.7c0.2-2.4,0.4-4,0.4-4.7c0-0.7,0.1-2,0.1-3.7c0-1.8,0-3.4,0.2-5c0.1-1.6,0.2-3.4,0.2-5.6
		c-0.1,0-0.2,0-0.3,0.1c-0.1,0.1-0.3,0.2-0.4,0.4"/>
	<path id="STROKE_fefd57d1-2684-4704-912a-22f7100b585e" class="st3" d="M318.5,24.8c0-0.6,0-0.9,0-0.9c0-1.1,0-1.5,0-1.2
		c0,0,0.1-0.9,0.4-2.7c0,0.2,0,0.2,0,0c0.1-0.2,0,0.2-0.2,1.2c-0.2,1-0.4,2-0.6,3c-0.2,0.9-0.3,1.5-0.3,1.9s0,0.6-0.1,0.9
		c0,0.3,0,0.3-0.1,0c-0.1-0.3-0.1,1.8-0.1,6.3c0,4.5,0,9.7,0.1,15.6c0,5.9,0.1,10.4,0.2,13.5c0.1,3,0,5.7-0.2,8.1
		c-0.2,2.4-0.6,4.6-1,6.7c-0.4,2.1-0.7,3.7-0.9,4.8c-0.1,1.1-0.2,2.5-0.2,4.1c0,1.6,0,2.9,0.1,3.8c0.1,1,0.2,1.5,0.3,1.7
		c0.2,0.2,0.3,0.3,0.6,0.4c0.2,0.1,0.4,0.2,0.7,0.3c0.2,0.1,0.5,0.1,0.9,0.1c0.4,0,0.5,0,0.4,0s0.6,0.1,2.1,0.3
		c1.5,0.2,3.6-0.1,6.3-0.8c2.7-0.7,5.2-1.2,7.4-1.4c2.3-0.2,5.3-0.4,9.2-0.6c3.9-0.2,6.9-0.4,9.1-0.6c2.2-0.2,3.7-0.4,4.6-0.4
		c0.9,0,2.6,0,5.2,0.1s4.6,0.1,6,0c1.5-0.1,2.7,0,3.7,0.1c1,0.1,1.6,0.3,1.9,0.5c0.3,0.2,0.5,0.3,0.7,0.4c0.2,0,0.4,0.1,0.6,0.2
		c0.3,0.1,0.9,0.1,1.8,0c0.9-0.1,1.9,0.2,2.9,0.9c1,0.7,1.8,1.2,2.5,1.5c0.7,0.3,1.4,0.4,2.1,0.3c0.7-0.1,1.1-0.1,1.4-0.1
		c0.3,0,0.6,0,0.9,0c0.3,0,0.5,0,0.7,0c0.2,0,0.3,0,0.3-0.1c0,0,0-0.1,0,0c0,0,0.1,0,0.3,0c0.2,0,0.6-0.4,1.1-1.1c0.6-0.7,1-2,1.2-4
		c0.3-2,0.4-3.6,0.3-4.9c0-1.2,0.1-4.5,0.4-9.6c0.3-5.2,0.5-9.2,0.7-12.1s0.3-5.9,0.3-9c0-3.1,0-5.7,0-7.9c0-2.2,0-3.9,0-5.2
		c0-1.3,0-2.1,0-2.4c0-0.3,0-0.6,0-0.9c0-0.2,0-0.5,0-0.9c0-0.4,0.1-0.7,0.1-1.1c0-0.4,0-0.7,0.1-1.1c0-0.4,0.1-0.9,0.2-1.4
		c0.1-0.6,0.2-1.2,0.3-1.8c0.1-0.6,0.1-1.1,0.2-1.5c0-0.4,0-0.8,0-1.1c0-0.3,0-0.5,0-0.5c0,0,0,0,0,0c0,0,0,0,0,0.1
		c0,0.1,0-0.2-0.1-0.8h0c0,0-0.1-0.1-0.2-0.1v0c0,0-0.1,0-0.1,0c-0.1,0-0.2,0-0.2,0.1"/>
	<path id="STROKE_9e92865e-8b6b-4fa1-a89c-c9387fe92482" class="st4" d="M7.3,52.6c-0.5,0.1-1,0.1-1.2-0.1c-0.3-0.2-0.8-0.1-1.6,0.1
		C3.6,53,3,53.4,2.5,53.8c-0.5,0.5-0.7,0.6-0.6,0.6C2,54.3,2,54.3,2,54.3c0,0-0.1,0.1-0.2,0.2c-0.1,0.1,0,0.5,0.2,1
		c-0.5,0,1.8,0.4,6.8,1.3c5,0.9,9.2,1.7,12.5,2.2c3.3,0.5,6.3,0.6,9,0.1c-0.8,0.2-1.2,0.3-1,0.2c-0.8-0.3-1.1-0.4-0.9-0.5
		c-0.4-0.9-0.6-1.2-0.5-1c0,0.6-0.3-0.8-1.1-4.3c-0.8-3.5-2.4-6.9-4.9-10.2c0-0.2-0.1,0.1-0.3,0.9c-0.2,0.8-0.3,2.7-0.5,5.7
		c-0.1,3-0.4,6-0.8,8.9c-0.4,3-0.6,6.8-0.7,11.5c0.1-0.1,0.1,0,0,0.2c-0.1,0.3,0.2,0,0.8-0.8c0.6-0.8,1.1-1.6,1.4-2.2
		c0.3-0.7,0.6-1.2,0.9-1.7c0.3-0.5,0.7-1,1.2-1.5c0.5-0.5,0.8-1,1.1-1.3c0.2-0.3,1.2-1.4,2.7-3.2c1.6-1.8,3.5-3.4,5.9-4.7
		c0,0.3,0,0.6,0,0.9"/>
	<path id="STROKE_d110475d-f3c0-48fd-9360-cf5986c32b3b" class="st4" d="M128.5,58.1c0.2-0.3,0.4-0.6,0.6-0.9c0,0.6,0,0.9,0,0.7
		c-1.3,0.7-1.7,0.9-1.3,0.6c-1.2,0.1-1.6,0.1-1.3,0.1c-0.9,0-1.3,0-1.1,0c-1,0-1.5,0-1.5,0c-1.2-0.1-3.1-0.1-5.7,0.1
		c-2.5,0.2-5.4,0.2-8.5,0c-3.1-0.2-5.6-0.3-7.4-0.2s-3.3-0.1-4.5-0.4c-1.2-0.3-1.9-0.4-2.2-0.2c-0.3,0.2-0.7,0.3-1.2,0.6
		c-0.5,0.2-0.8,0.4-0.9,0.4c-0.1,0-0.2,0.1-0.2,0c0,0,0,0,0.1,0c0.1,0-0.3,0.1-1,0.2c-0.7,0.1-1.4,0.1-1.9,0.1c-0.5,0-1,0-1.3,0
		c-0.4,0-0.6,0-0.6,0c0,0,0,0,0.2,0c0.1,0,0.1,0-0.2,0c-0.3,0-0.5,0-0.8,0c-0.3,0-0.4,0-0.4-0.1c0,0-0.1-0.1-0.2-0.2
		c0.1,0.2,0.7-0.2,2-1.2c1.2-1,2-1.7,2.4-2.3c0.4-0.5,0.7-0.8,0.8-1c0.1-0.1,0.7-0.8,1.5-1.9c0.9-1.1,3.8-4.4,8.7-10c0,0.7,0,1,0,1
		c-0.7,0.2-1.1,2.6-1.2,7.3c-0.1,4.7-0.2,8.5-0.2,11.2c0,2.7,0.2,4.8,0.5,6c0.3,1.3,0.1,2.7-0.7,4.3h0c-0.1-0.4-0.1-0.9-0.2-1.8
		c0-0.8-0.6-2.1-1.8-3.8c-1.1-1.7-2.1-3.1-3-4.1c-0.8-1-1.5-1.8-2-2.3c-0.5-0.5-1-1-1.4-1.3c-0.4-0.4-1.3-0.8-2.8-1.2
		c0-0.1,0.1-0.2,0.2-0.3c0.1-0.2,0.3-0.3,0.5-0.5"/>
	<path id="STROKE_212caa8a-cd12-4ee0-ab55-f77a4fbbcfa8" class="st4" d="M146.1,57.1c0,0,0,0.1,0,0.2c0.8,0,1.1,0,0.9,0
		c0.7,0,1,0.1,1,0.1c0.3,0.1,2,0.5,5.1,1.1c3,0.7,6,1,9,1.1c3,0.1,5.4,0.2,7.1,0.3c1.8,0.1,4.1-0.2,6.9-1c2.9-0.8,5.2-1.5,6.9-2.1
		c1.8-0.6,3.7-0.9,5.6-0.7c2,0.1,3.4,0.3,4.2,0.6c0.8,0.3,1.7,0.4,2.6,0.4c0.9,0,1.8-0.2,2.5-0.4c0.8-0.2,1.2-0.3,1.2-0.3
		c0.1,0,0,0-0.1,0c-0.1,0,0.1,0,0.8,0.1c0-0.1,0,0.1,0.2,0.8c-0.5,0-0.1,0,1.1,0.1c-0.3,0-0.6-0.2-0.9-0.5c-0.3-0.3-0.5-0.4-0.4-0.3
		c0.1,0.1,0.1,0.1,0,0c0,0-1.1-1.1-3.2-3.2c-2.1-2.1-4.2-4.4-6.4-7c-0.2,0.6-0.2,0.8-0.2,0.7c-0.1,0.8-0.1,1.2-0.2,1.2
		c0,1.2,0,1.6,0,1.2c0,0.8,0,1.2,0,1.1c0.2-0.1-0.1,6-0.9,18.1c0.1-0.5,0.2-0.8,0.3-1c0.1-0.2,0.5-0.9,1.2-2c0.6-1.1,1.6-2.4,3-3.8
		c1.3-1.4,2.6-2.8,3.9-4.1c1.2-1.3,1.9-2,2.1-2.2"/>
	<path id="STROKE_d796ec30-3c7e-4f68-9450-61b0373952af" class="st4" d="M221.7,54.2c0-1.1,0-1.5,0-1.2c0-0.1,0-0.4,0-0.9
		c0.4,0.6,0.7,0.9,0.8,1c0.1,0.1,0.2,0.2,0.3,0.2c0,0,0.1,0,0.1,0c0,0,0.2,0.2,0.5,0.8c0.3,0.5,2.9,0.9,7.9,0.9
		c4.9,0.1,9.1,0.1,12.4,0.1c3.4,0,6.3-0.2,8.8-0.6c2.5-0.4,5.4-0.8,8.5-1c3.2-0.2,5.4-0.4,6.7-0.5c1.3-0.1,2-0.1,2.3-0.1
		c0.3,0,0.5,0,0.7-0.1s0.3-0.1,0.3-0.1c0,0,0,0,0,0c0,0,0-0.1,0.1-0.1c0,0,0,0,0,0c-0.1,0-0.1,0-0.1,0c0,0,0.6-0.1,1.6-0.4
		c1-0.2,1.5-0.3,1.4-0.3c-0.3,0.1-0.2,0.1,0.3-0.1c0.5-0.2,0.8-0.3,0.9-0.4"/>
	<path id="STROKE_a8533254-d214-4157-a3ed-6f4c20299eb7" class="st4" d="M224,53c-0.8-0.1-1.2-0.1-1.2-0.1c-0.1,0,0,0,0,0
		c-0.9-0.2-1.2-0.3-0.9-0.2c-0.1,0-0.1,0-0.3-0.1c0-0.7,0-0.9,0-0.8c1.4-1.6,6.3-4,14.6-7.2c-0.1,0-0.1,0.1-0.2,0.1
		c0,0-0.1,0.1-0.1,0.1c0,0,0,0,0,0c0,0,0,0,0.1-0.1c0.1-0.1-0.2,0.2-0.7,0.7c-0.5,0.5-0.7,0.7-0.5,0.5h0c0,0,0,0,0,0.1
		c0,0-0.1,0-0.1,0c0,1.3,0,1.7,0,1.4c-0.2,1.4,0.1,8.5,0.6,21.3c0,0,0.1,0,0.2,0c0,0.1,0-0.2,0.2-0.7c0.2-0.5,0.2-1,0.2-1.4
		c0-0.4-0.2-0.8-0.5-1.3c-0.3-0.4-0.4-0.6-0.4-0.6c0,0.1,0,0-0.1-0.1c-0.1-0.1-0.1-0.1,0,0c0.1,0.1,0,0-0.5-0.4
		c-0.5-0.4-0.8-0.6-0.8-0.7c-0.1-0.1-0.2-0.2-0.5-0.4c-0.3-0.2-0.3-0.2-0.3-0.1c0.1,0.1-0.5-0.3-1.7-1.2c-1.2-0.9-2.5-2.1-3.9-3.5
		c-1.4-1.4-2.4-2.3-2.9-2.7c-0.6-0.4-1-0.8-1.3-1c-0.3-0.2-0.4-0.5-0.5-0.7c-0.1-0.3-0.1-0.5-0.2-0.8c-0.1-0.3-0.1-0.4-0.1-0.4
		c0,0,0-0.1-0.1-0.4c-0.1-0.3,0.1-0.7,0.3-1.1c0.3-0.4,0.5-0.8,0.8-1.1"/>
	<path id="STROKE_f26ad622-f0d3-4aeb-9e55-30660476f859" class="st4" d="M296.2,61.1c-1,0-1.3,0-1,0c0,0.1,0,0.2,0,0.1
		c-0.1,0-0.1-0.1,0,0c0,0,0,0,0,0c0,0,0,0,0-0.1c0,0,0,0,0,0c0,0.1,0,0.1,0,0.1c0,0,0,0-0.1-0.1c0,0-0.1,0-0.2-0.1
		c-0.1-0.1,0,0,0.1,0.1c0.1,0.1,0.1,0-0.2-0.1c-0.3-0.2-0.5-0.4-0.7-0.6c-0.2-0.2-0.3-0.4-0.3-0.5c0-0.1,0-0.4,0.2-0.8
		c0.1-0.4,0.2-0.5,0.2-0.4c0,0.2,0.2,0.1,0.7,0c0.5-0.2,0.8-0.3,1-0.4c0.2-0.1,2.2-0.2,5.9-0.3c3.7-0.1,7.6,0,11.6,0.4
		c-0.4-0.5,0.8-0.7,3.6-0.6c0.1,0.2,0,0.2-0.1-0.2c-0.1-0.3-0.6-1.1-1.3-2.3c-0.8-1.2-1.6-2.1-2.3-2.9c-0.8-0.8-1.3-1.3-1.6-1.7
		c-0.3-0.4-0.8-0.7-1.3-0.9c-0.5-0.2-1-0.3-1.4-0.3c-0.4,0.1-0.6,0.1-0.6,0c0,0,0.1,0,0,0c0,0-0.1,0-0.3-0.1
		c-0.2-0.1-0.4-0.3-0.6-0.7c-0.2-0.4-0.4-0.6-0.3-0.6c-0.5-0.7-0.7-0.9-0.5-0.6c-0.5-0.5-0.7-0.7-0.5-0.6c-0.6-0.6-0.8-0.7-0.5-0.5
		c0,0-0.1-0.1-0.1-0.1c-0.6-0.3-0.8-0.3-0.6-0.2c-0.8,0.9-1.1,1.3-1,1.2c0.2-0.1,0.2-0.2,0.1,0c-0.1,0.1-0.2,1.1-0.4,3.1
		c-0.2,1.9,0.2,7.3,1.1,16.2c0.1,0,0.1,0,0.3,0c-0.2-0.2-0.1-0.7,0.2-1.5c0.3-0.8,0.7-1.4,1.4-2.1s1.4-1.3,2.1-2
		c0.8-0.7,1.7-1.5,2.8-2.2c1.1-0.7,1.7-1.2,2-1.4"/>
	<path id="STROKE_f625bd18-7247-495a-8bd5-ca4d0c8baf2b" class="st4" d="M391.7,58.5c0-0.7,0-1,0-0.8c0-0.1,0-0.3,0-0.7
		c1,0,1.4,0,1.1,0c-0.1,0,2.1,0,6.8,0c4.6,0,8.3,0.1,11,0.3c2.7,0.2,6.6-0.5,11.8-2c0,0-0.1,0-0.3,0c-0.2,0-0.4,0.1-0.7,0.1"/>
	<path id="STROKE_f9665bc4-02cc-4084-9ce1-efcebc280f84" class="st4" d="M394.7,58.9c0,0,0,0.1,0,0.3c-0.6,0.1-0.9,0.1-0.7,0.1
		c-0.1,0-0.4,0-1.1,0c0.2-0.1,0.1-0.4-0.1-0.7s0.1-1.1,1.1-2.2c0.9-1.1,1.7-1.9,2.4-2.4c0.7-0.4,1.6-1.1,2.7-1.8
		c1.1-0.8,3.2-2.2,6.2-4.4c-0.4,0.4-0.6,0.5-0.5,0.6c-0.1,1.3-0.1,1.8,0,1.4c0,1,0,1.4,0,1.3c0,0.6,0,2.6,0,6.1
		c0,3.5,0,7.5,0.2,11.9c0.1-0.1,0.1-0.2,0-0.3c0-0.1-0.1-0.2-0.1-0.1c0,0,0,0.1,0,0.1c0,0,0-0.1-0.1-0.3c-0.1-0.2-0.3-0.4-0.6-0.7
		c-0.3-0.3-0.5-0.4-0.6-0.4c-0.5-0.5-0.7-0.7-0.6-0.6c-0.4-0.4-0.6-0.6-0.6-0.6c0.2,0.1-3.9-2.3-12.1-7.2c0.1-0.3,0.1-0.6,0.2-0.8"
		/>
</g>
</svg>
