<?xml version="1.0" encoding="utf-8"?>
<!-- Generator: Adobe Illustrator 22.1.0, SVG Export Plug-In . SVG Version: 6.00 Build 0)  -->
<svg version="1.1" id="Ebene_1" xmlns="http://www.w3.org/2000/svg" xmlns:xlink="http://www.w3.org/1999/xlink" x="0px" y="0px"
	 viewBox="0 0 426.7 114.3" style="enable-background:new 0 0 426.7 114.3;" xml:space="preserve">
<style type="text/css">
	.st0{fill:none;stroke:#171612;stroke-width:1.82;stroke-linecap:round;stroke-linejoin:round;}
	.st1{fill:none;stroke:#171612;stroke-width:1.872;stroke-linecap:round;stroke-linejoin:round;}
	.st2{fill:none;stroke:#171612;stroke-width:1.806;stroke-linecap:round;stroke-linejoin:round;}
	.st3{fill:#FAC141;stroke:#FAC141;stroke-width:0.5;stroke-linecap:round;stroke-linejoin:round;}
	.st4{fill:none;stroke:#000000;stroke-width:3.543;stroke-linecap:round;stroke-linejoin:round;stroke-dasharray:0.354,5.314;}
</style>
<g>
	<path id="STROKE_a9cd335f-83d3-4231-a729-d7796d446ed5" class="st0" d="M2.8,0.9c0.3,0,0.6,0,0.9,0C4,0.9,3.7,0.9,2.8,0.9
		c0,1.8-0.2,38.1-0.5,109.1c0.5,0,2.7,0,6.4,0c3.8,0,7,0,9.6,0c2.6,0,8.2,0,16.8,0.1c8.6,0,15.2,0.1,19.8,0.1c4.6,0,8.3,0,11.1,0
		c2.8,0,9,0,18.8,0.1c9.8,0,18.1,0.1,24.9,0.1c6.8,0,11.8,0.1,15,0.1c3.2,0,5,0,5.3,0c0,0,0-8,0.1-23.8c0.1-15.9,0.1-28.1,0.2-36.6
		c0-8.5,0.1-14.8,0.1-18.9c0-4.1,0-7.4,0-9.8c0-2.4,0-9.1,0.1-20c-0.9,0-8.5,0-22.6-0.1C93.6,1.3,80.4,1.2,68.3,1.2
		C56.1,1.1,42.3,1.1,26.9,1C11.4,0.9,3.4,0.9,2.8,0.9"/>
	<path id="STROKE_98f8ba6f-f914-4a2e-8073-b30b2daf23cd" class="st1" d="M153.3,1.5c-0.6,0-1.3,0-2,0c0,0,0.1,0,0.1,0
		c0,0-0.4,0-1.3,0c0,1,0,6-0.1,14.9c0,9-0.1,19.1-0.1,30.4c0,11.3-0.1,20.3-0.1,27.2c0,6.9-0.1,14.4-0.1,22.6c0,8.2-0.1,12.8-0.1,14
		l1.2,0c0,0-0.3,0-0.9,0c0.4,0,0.4,0,0.1,0c-0.3,0,2.9,0,9.7,0c6.7,0,12,0.1,15.8,0.1c3.8,0,7.7,0,11.8,0.1c4,0,13,0.1,26.8,0.1
		c13.8,0.1,25,0.1,33.4,0.1c8.4,0,15.5,0.1,21.2,0.1c5.7,0,8.6,0,8.7,0c0-0.9,0.2-37.3,0.5-109.1c-0.9,0-1.3,0-1,0
		c0.3,0-20.5-0.1-62.2-0.3c-41.8-0.2-63.2-0.3-64.4-0.3"/>
	<path id="STROKE_d5e4ce49-a59e-4326-a01b-d0544cdbdb5d" class="st2" d="M297.7,3.7c-0.3,0-0.6,0-1.1,0c0,0,0.1,0,0.1,0
		c0.1,0-0.4,0-1.4,0c0,1.3,0,4.9,0,10.6c0,5.8,0,10.8-0.1,15.1c0,4.3-0.1,18.7-0.2,43.3c-0.1,24.6-0.2,37.9-0.2,40.1
		c1,0,2.1,0,3.2,0c1.1,0,5,0,11.9,0.1c6.8,0,12.1,0.1,15.9,0.1c3.8,0,6.6,0,8.5,0c1.9,0,11.6,0,29.2,0.1c17.6,0.1,31.8,0.1,42.6,0.2
		c10.9,0,16.3,0.1,16.4,0.1c0-0.4,0.2-36.8,0.5-109.1c-0.9,0-5.3,0-13.4-0.1c-8.1,0-17.5-0.1-28.2-0.1C370.5,4,361.6,4,354.4,4
		c-7.2,0-12.5-0.1-15.9-0.1c-3.4,0-7.3,0-11.8-0.1c-4.4,0-10.7,0-18.9-0.1c-8.2,0-12.3-0.1-12.5-0.1"/>
	<path id="STROKE_6c7e3708-9f18-4dbf-b967-abb365dbdd5f" class="st3" d="M127.6,26c0.3,0,0.5,0,0.7,0c0.2,0,0.4-0.4,0.6-1.1
		c0.2-0.2-0.8-0.6-3-1c-2.2-0.4-4-0.7-5.2-0.6c-1.2,0-6.3,0-15.4-0.2c-9.1-0.1-16.1-0.3-21.1-0.6c-5-0.3-9.2-0.4-12.9-0.4
		c-3.6,0-6.6,0.1-8.9,0.1c-2.3,0.1-6.4,0.2-12.3,0.3c-5.9,0.1-10.7,0.2-14.5,0.1c-3.8,0-6.5,0-8.2,0.1c-1.7,0.1-3.1,0.1-4.3,0.1
		c-1.2,0-2.4,0-3.8,0.1c-1.3,0.1-2.5,0.1-3.4,0.1c-0.9,0-1.8,0.1-2.5,0.1c-0.8,0-1.2,0-1.4,0c-0.2,0-0.6,0-1.4,0.1
		c-0.7,0.1-1.3,0.2-1.6,0.2c-0.3,0.1-0.7,0.2-1,0.3c-0.4,0.1-0.8,0.3-1.4,0.5c-0.6,0.2-1,0.4-1.3,0.4c-0.3,0.1-0.4,0.2-0.5,0.2
		C4.9,25,4.9,25,4.8,25c0,0-0.2,0.1-0.4,0.4c-0.2,0.3-0.3,0.4-0.3,0.3c0-0.1,0.1,0,0,0.2c0,0.2-0.1,0.5-0.1,0.7
		c-0.1,0.3-0.1,0.5-0.2,0.6c-0.1,0.2-0.2,0.3-0.2,0.5C3.5,27.9,3.5,28,3.5,28c0,0,0,0,0-0.1c0,0,0,0.1-0.1,0.2
		c-0.1,0.2-0.2,0.4-0.2,0.7c0,0.3-0.1,0.5,0,0.5c0,0,0,0,0,0c0,0,0,0.1,0.1,0.3c0.1,0.3,0.2,1.5,0.3,3.6c0.1,2.1,0.3,5.3,0.6,9.6
		c0.3,4.2,0.6,7.3,0.9,9.2c0.3,1.9,0.4,4.1,0.3,6.5C5.2,61,5.5,63.1,6.1,65c0.7,1.9,1.3,3.5,1.9,5c0.6,1.5,0.6,2.9,0,4.4
		c-0.6,1.4-1.3,2.8-2.1,4c-0.8,1.2-1.4,2.2-2,2.8c-0.5,0.7-0.8,0.9-0.7,0.8c0.1-0.1,0.1-0.2,0.1,0c0,0.1,0,0.1,0,0
		c0-0.2,0-0.2,0-0.2c0,0,0,0.1,0,0c0,0,0,0,0,0c0,0,0,0.1,0,0.1c0,0,0,0.1,0,0.2c0,0.1,0,0.1,0-0.1c0-0.2,0-0.1,0,0.3
		c0,0.3-0.1,0.7-0.1,1c0,0.3-0.1,0.7-0.1,1c0,0.4,0,0.5,0,0.4c0-0.1,0-0.2,0-0.2c-0.5,0.5,2.1,0.6,7.7,0.4
		c5.7-0.2,10.8-0.3,15.4-0.2c4.6,0.1,8,0.3,10.3,0.4c2.3,0.2,4.1,0.3,5.3,0.3c1.3,0,6.1,0.3,14.5,0.9c8.4,0.5,15.9,0.9,22.4,1
		c6.5,0.1,11.6,0.1,15.3,0c3.7-0.1,7.6-0.2,11.9-0.2c4.2,0,7.6-0.1,10.2-0.3c2.5-0.3,4.3-0.4,5.4-0.4c1.1,0,1.7-0.1,2.1-0.2
		c0.3-0.1,0.4-0.2,0.4-0.1c-0.1,0-0.1,0,0,0c0,0,0,0,0,0c-0.1,0-0.1,0.1,0,0s0.3-0.2,0.9-0.5c0.6-0.3,0.8-0.4,0.7-0.3
		c1.1-0.4,1.4-0.6,1.1-0.4c0.1,0,0.2-0.1,0.4-0.2c0,0,0-0.1,0-0.3c0.1,0,0.2,0,0.4,0c0.2,0,0.4-0.1,0.6-0.1"/>
	<path id="STROKE_3fd09563-c671-45a0-8c5c-ab5bac56c51a" class="st3" d="M276.5,42.9c0.3-1.1,0.4-1.4,0.3-1.1c0-0.1-0.1-0.3-0.2-0.8
		c-0.6-0.3-3.4-0.2-8.4,0.1c-5,0.4-13.1,0.7-24.3,1s-19.9,0.5-26.3,0.6c-6.4,0.1-11.4,0-14.9-0.3c-3.6-0.3-6.1-0.5-7.7-0.7
		c-1.6-0.2-2.7-0.3-3.2-0.3c-0.6-0.1-1.9,0-4,0.1c-2.1,0.1-5.5,0.2-10.2,0.1c-4.7-0.1-8.1-0.1-10.2-0.2c-2.1-0.1-3.8-0.1-4.9,0
		c-1.1,0.1-2,0.1-2.5,0.2c-0.5,0-0.8,0-0.6,0c0.1,0-0.5,0-1.9,0c-1.4,0-2.7,0.1-3.9,0.2c-1.2,0.1-2,0.2-2.5,0.3
		c-0.5,0.1-1,0.3-1.6,0.4c0,0,0,0.1,0,0.1c-0.1,0-0.3,0.1-0.6,0.4c-0.3,0.2-0.5,0.3-0.4,0.3c0.1,0,0.1-0.1,0.1-0.1
		c0,0-0.1,0.1-0.4,0.2c0,0.8,0,1.2,0,1.2c0,0.1,0,0.1,0,0c0,1.1,0.1,1.5,0.1,1.3c0.1,0.6,0.1,0.9,0.1,0.9c0-0.1,0.3,1.7,0.7,5.2
		c0.4,3.6,0.7,6.3,0.8,8.2c0.1,1.9,0.3,3.5,0.6,4.8c0.3,1.3,0.8,2.4,1.3,3.4c0.4,0,0.5,0.1,0.2,0c-0.3,0,2.3-0.2,7.9-0.6
		c5.6-0.4,12.2-0.6,19.8-0.5c7.6,0.1,13.6,0.2,18,0.4c4.4,0.2,7.5,0.2,9.5,0.1c2-0.1,4.5-0.4,7.7-0.8c3.2-0.4,7.1-0.5,11.8-0.1
		c4.7,0.4,8.4,0.6,11,0.7c2.7,0.1,5.1,0.2,7.4,0.2c2.3,0,4.1,0.1,5.4,0.2c1.3,0.1,3.3,0,5.8,0c2.6-0.1,9.3-0.4,20.3-1
		c0,0-0.4,0-1-0.1c-0.6,0-1.1-0.1-1.4-0.2"/>
	<path id="STROKE_c161b67a-569e-478e-a645-4f7cfe9856db" class="st3" d="M297.8,18c-0.1-0.2-0.1-0.4-0.2-0.3
		c-0.3-0.4-0.4-0.5-0.3-0.4c-0.1-0.1-0.1-0.2-0.1-0.2c0,0,0,0,0,0c0,0,0,0-0.1-0.2c-0.1-0.1-0.3-0.3-0.5-0.6
		c-0.8,0.1-1.1,0.2-0.8,0.1c-0.3,0.4-0.4,0.6-0.4,0.7c0,0,0,0,0.1,0c0,0.7,0,0.9,0,0.7c0,0.7,0,1,0,0.9c-0.1,0.3-0.2,4.4-0.3,12.3
		c0,7.9,0,13.9,0.2,17.9c0.2,4,0.3,7.1,0.5,9.4c0.2,2.2,0.2,4.5,0,6.8c-0.2,2.3-0.3,4.7-0.5,7c-0.1,2.3,0,4.5,0.4,6.7
		c0.4,2.1,0.5,3.7,0.5,4.7c-0.1,1-0.1,2,0,3c0,1,0.2,1.6,0.4,2c0.2,0.4,0.4,0.6,0.4,0.6s0.2,0.2,0.3,0.4c0.2,0.2,0.4,0.5,0.6,0.8
		c0.2,0.3,0.3,0.5,0.4,0.5c0,0,0,0,0-0.1c0-0.1,0.1,0.1,0.3,0.6c1,0,1.3,0,1.1,0c-0.5,0.2,0.3,0.1,2.3-0.4c2.1-0.4,5.5-0.7,10.2-0.8
		c4.7-0.1,8.7-0.1,11.8,0c3.2,0.1,6.4,0.2,9.8,0.3c3.4,0.1,7,0,10.9-0.2c3.9-0.2,7-0.4,9.5-0.4c2.5,0,5.4,0,8.7,0.2
		c3.3,0.2,6.4,0.1,9.3-0.1c2.9-0.2,6.6,0,11.2,0.6c4.6,0.6,8.1,1,10.5,1.3c2.4,0.3,4.5,0.5,6.2,0.8c1.7,0.3,3.3,0.5,5,0.6
		c1.7,0.1,3.2,0.2,4.5,0.2c1.3,0,2.2,0,2.8,0.1c0.6,0,1.1,0.1,1.6,0.1s0.9,0.1,1.4,0.1c0.5,0,1,0,1.5,0.1c0.5,0.1,0.9,0.1,1.2,0.1
		c0.3,0,0.6,0.1,0.8,0.1c0.2,0,0.2,0,0.1,0c-0.1,0,0.1,0,0.8,0.2c0.6,0.1,1.2,0.3,1.6,0.4s0.9,0.3,1.5,0.5c0.6,0.2,0.9,0.3,1,0.3
		c0.1,0,0.1,0,0,0c0,0,0.1,0,0.1,0c0,0,0,0,0,0.1c-0.1,0.1-0.5-0.4-1.2-1.5c-0.7-1-1.1-3.2-1.1-6.6c0-3.3,0-6,0.2-8.1
		c0.2-2,0.3-4.5,0.5-7.3c0.2-2.8,0.3-5,0.3-6.6c0.1-1.6,0-3.1-0.2-4.4c-0.2-1.3-0.4-2.7-0.8-4.1c-0.3-1.4-0.3-3.5,0.1-6.3
		c0.4-2.8,0.9-6.1,1.6-9.8c0.6-3.7,1-6.6,1.2-8.7c0.2-2,0.3-4,0.3-5.9c0-1.9,0-3.2-0.2-4.2c-0.2-0.9,0-1.9,0.6-3l0,0c0,0,0,0,0-0.1
		c0,0,0.1,0,0.2-0.1c0,0,0.1,0.1,0.2,0.2c0.2,0.2,0.3,0.3,0.4,0.4"/>
	<path id="STROKE_47e37b8b-50d2-4134-a2bb-da45a00131e0" class="st4" d="M5.6,48.9C5.4,49,5.3,49.1,5.3,49C5.4,49,5.5,49,5.6,48.9
		C5.5,49,5.6,49,5.6,48.9C5.5,49,5.5,49,5.5,49c0,0,0,0,0,0c0,0-0.1,0-0.2,0.1c-0.1,0-0.1,0,0.1,0c0.1,0,0.1,0-0.2,0.1
		c-0.3,0.1-0.6,0.2-0.8,0.3c-0.3,0.1-0.5,0.2-0.8,0.4C3.3,49.9,3.2,50,3.3,50c0.1,0,0.1-0.1,0.1-0.1c0,0-0.1,0-0.2,0.1
		c0.6,0.1,0.9,0.1,0.9,0.1c0.2,0,1.2,0.1,2.7,0.2c1.6,0.2,3.6,0.4,5.9,0.8c2.4,0.3,5.3,0.6,8.8,0.7c3.5,0.2,6,0.2,7.8,0.2
		c1.7,0,4.3,0.1,7.6,0.5c3.4,0.4,6.5,0.6,9.5,0.8c2.9,0.2,5.3,0.4,7,0.5c1.7,0.2,4,0.5,6.9,1c2.8,0.5,5.9,0.9,9.2,1
		c3.3,0.2,5.6,0.4,6.9,0.6c1.3,0.2,4,0.5,8.3,0.8c4.3,0.3,7.5,0.5,9.6,0.5c2.1,0,4.6,0,7.4,0c2.8,0,5.2,0.1,7.1,0.4
		c1.9,0.3,3.3,0.4,4.2,0.2c0.9-0.1,2.3-0.3,4.2-0.4c1.9-0.1,3.4-0.1,4.5,0c1.1,0.1,2,0.1,2.6,0c0.6-0.2,0.9-0.2,1-0.3
		c0,0,0.1,0,0.1,0c0,0,0.2,0,0.5,0c0.4,0,0.5-0.1,0.5-0.1c0.1,0,0.2-0.1,0.4-0.1c0.2,0.1,0-0.4-0.8-1.3c-0.7-0.9-2.5-2-5.3-3.2
		c-2.8-1.2-4.9-2.2-6.5-2.9c-1.5-0.7-2.7-1.1-3.4-1.3c-0.7-0.2-1.3-0.2-1.7,0c-0.4,0.2-0.6,0.3-0.5,0.2c0.1,0,0.1,0,0,0
		c-0.1,0-0.2,0.1-0.5,0.2c-0.2,0.1-0.3,0.2-0.3,0.2c0.1,0,0,0.1-0.2,0.1c-0.2,0.1-0.4,0.9-0.6,2.5c-0.2,1.6-0.4,3.2-0.4,5
		c-0.1,1.8-0.1,3.1-0.3,4c-0.1,0.9-0.2,1.5-0.4,1.9c-0.1,0.4-0.2,0.5-0.1,0.4c0-0.1-0.1,0.1-0.4,0.4c-0.3,0.4-0.6,0.6-1,0.8
		c0.6-0.3,1-0.5,1-0.6c0.1-0.1,1.4-0.6,3.9-1.4c2.5-0.8,4.5-1.4,6-1.7c1.5-0.3,2.8-0.6,4-0.9c1.2-0.2,2.1-0.5,2.8-0.8
		c0.7-0.3,1.2-0.5,1.6-0.8c0.4-0.2,0.7-0.4,1-0.6c0.3-0.2,0.4-0.3,0.5-0.3c0,0,0,0,0,0c0,0,0,0,0.2-0.1c0.2-0.1,0.3-0.1,0.6-0.1
		c0.2,0,0.4,0.1,0.4,0.1"/>
	<path id="STROKE_fb956ede-12f0-48c8-bb42-bb06febb1d1c" class="st4" d="M26.3,45.4c0.6-0.6,0.9-0.8,0.7-0.7
		c0.1-0.3,0.2-0.4,0.2-0.4c-1-0.7-1.3-0.8-1-0.6c-1.1,0.1-1.5,0.2-1.2,0.1c0.1-0.1-2.1,0.4-6.6,1.4c-4.5,1-10.1,2.1-16.7,3.1
		c1.1,0.8,1.5,1,1.2,0.7c0.4,0.1,0.6,0.1,0.6,0.1c0.6,0.2,0.8,0.3,0.6,0.2c0.4,0.4,0.6,0.6,0.5,0.5c-0.5-0.2,0.6,0.7,3.5,2.8
		c2.9,2.1,5.1,3.5,6.7,4.4c1.6,0.9,2.9,2,4,3.5c1.1,1.5,4.3,3.1,9.8,4.8c-0.5-0.8-0.7-1.1-0.5-0.8c-0.5-0.8-0.7-1.1-0.5-0.9
		c-0.2-1.2-0.2-1.7-0.1-1.2c0-0.3,0-0.6,0-1c0-0.4,0-0.6-0.1-0.5c0,0,0,0.1,0,0.2c0.1,0.1,0-1-0.2-3.3c-0.2-2.3-0.4-4.1-0.8-5.6
		c-0.4-1.5-0.8-2.6-1.2-3.4c-0.5-0.8-0.8-1.5-1-2c-0.2-0.5-0.3-0.8-0.3-0.7c0,0.1,0,0.2-0.1,0.3c-0.1,0.1,0,0,0.4-0.5
		c0.4-0.5,0.6-0.8,0.7-0.9"/>
	<path id="STROKE_772cc4b9-1097-4613-9805-20a103befbb8" class="st4" d="M148.6,54.9c0.1,0.3,0.1,0.4,0.1,0.4c0,0,0,0,0.1-0.1
		c0.1,0,0.2,0,0.1,0c0,0-0.1,0.1-0.1,0.2c0,0.1,0.1,0.1,0.4,0.1c0.3,0,0.7-0.2,1.1-0.7c0.4-0.5,3.6-0.8,9.6-1
		c6-0.1,10.7-0.2,14.3-0.1c3.5,0.1,6.5,0.1,8.9,0.2c2.4,0.1,4.8-0.1,7.4-0.6c2.6-0.4,6.3-0.6,11.2-0.4c4.9,0.2,8.5,0.3,10.8,0.4
		c2.3,0.1,4.3,0.3,6.1,0.6c1.7,0.3,3.5,0.4,5.5,0.3c1.9-0.1,3.9,0,6,0.2c2.1,0.2,3.8,0.3,5.1,0.3c1.3,0,3.3,0,5.9,0
		c2.6,0,4.9,0,6.9,0.1c2,0.1,3.5,0.1,4.5,0c1.1-0.1,1.9-0.1,2.5-0.1c0.6,0,1.1,0,1.5,0.1c0.4,0,0.6,0,0.7,0.1c0.1,0,0.3,0,0.4,0
		s0.9,0.1,2.4,0.3c1.4,0.2,2.7,0.3,3.7,0.4c1,0.1,2,0.1,3,0.1c1-0.1,3.6-0.2,7.8-0.3c0.1-0.1-0.1-0.3-0.4-0.8
		c-0.3-0.5-0.8-0.9-1.3-1.1c-0.5-0.2-1-0.4-1.4-0.6c-0.4-0.1-0.8-0.3-1.2-0.4c-0.4-0.2-0.9-0.3-1.4-0.5c-0.6-0.2-0.9-0.3-1-0.4
		c-0.1,0-0.2-0.1-0.5-0.2c-0.2-0.1-0.4-0.2-0.6-0.3c-0.2-0.1-0.5-0.2-0.8-0.3c-0.3-0.1-0.4-0.2-0.4-0.1c0.1,0,0,0-0.1,0
		c-0.1,0-0.4-0.2-0.8-0.3c-0.4-0.2-1-0.1-1.8,0.3c0.9,0.7,0.6,4.7-0.7,11.8c-0.1,0,0.2,0,0.9-0.3c0.7-0.2,1.5-0.4,2.4-0.7
		c0.9-0.3,1.5-0.4,1.8-0.5c0.3-0.1,0.4-0.1,0.4-0.1c0,0,0.1,0,0.4-0.1c0.3-0.1,0.7-0.2,1.1-0.4c0.4-0.1,0.8-0.3,1.3-0.5
		c0.5-0.2,0.9-0.4,1.3-0.7c0.4-0.2,0.8-0.4,1.1-0.7c0.4-0.2,0.6-0.4,0.7-0.4c0.1-0.1,0.1-0.1,0.1-0.1c0,0-0.1,0-0.1,0.1
		c0,0,0.1,0,0.2-0.1c0.2-0.1,0.4-0.3,0.7-0.6c0.3-0.3,0.5-0.5,0.5-0.7"/>
	<path id="STROKE_a3aaf52d-f7f4-4ac9-80a3-2c686f33e64f" class="st4" d="M149.4,53.4c0,0.1-0.2,0.1-0.8,0c-0.6-0.1-0.8-0.1-0.6-0.1
		c0.1,0,0.1,0,0-0.1c0.9-0.6,1.2-0.8,0.9-0.6c0.9-0.4,1.2-0.5,1.1-0.5c-0.1-0.1,5-1.7,15.4-4.8c-0.3,0.3-0.5,0.4-0.4,0.3
		c0,0,0-0.1,0-0.1c0,0-0.1,0-0.3,0.2c-0.1,0.2-0.2,0.5-0.2,0.8c0,0.3,0,0.5,0,0.5c0,0,0,0,0,0c0,0,0,0.2-0.1,0.5
		c-0.1,0.4-0.1,1.3-0.2,2.8c-0.1,1.5-0.2,2.6-0.3,3.4c-0.1,0.8-0.2,1.3-0.4,1.6c-0.2,0.3-0.4,0.6-0.7,1c-0.3,0.4-0.4,0.6-0.5,0.6
		c0,0,0,0,0,0c0,0,0,0,0,0c0,0-0.4,0.3-1.2,0.9c0,0.3,0,0.2-0.1-0.3c-0.1-0.5-1.3-1.2-3.6-2.1c-2.3-0.9-4.5-1.5-6.4-1.8
		c-1.9-0.3-3.4-0.5-4.3-0.4c-0.9,0.1-1.5,0.1-1.5,0.1"/>
	<path id="STROKE_08a01a11-271f-4d4b-822b-70ff6d90818d" class="st4" d="M292.3,54.4c-0.4-0.7-0.6-0.9-0.4-0.6c0,0-0.1-0.1-0.1-0.2
		c0.7-0.4,0.9-0.6,0.7-0.4c-1.1-0.1,0.4-0.1,4.4,0.1c4,0.2,7.2,0.3,9.6,0.4c2.4,0.1,4.5,0.1,6.1,0.2c1.7,0.1,3.3,0.1,4.8,0.2
		c1.5,0.1,3.9,0.2,7.2,0.4c3.3,0.1,6.5,0.3,9.6,0.5c3.1,0.2,5.5,0.3,7.3,0.5c1.8,0.1,3.8,0.1,6.1-0.1c2.3-0.2,6.1-0.1,11.5,0.4
		c5.4,0.5,9.8,0.9,13.3,1.4c3.5,0.4,6.1,0.7,7.8,0.7c1.7,0,3.2,0.1,4.5,0.2c1.3,0.1,2.2,0.2,2.8,0.2c0.5,0,1.9-0.1,4.1-0.3
		c2.2-0.3,3.9-0.5,5.1-0.6c1.1-0.2,2-0.2,2.6-0.1c0.6,0.1,0.9,0.2,1,0.1c0.1,0,0.2,0,0.2,0c0,0,0.2,0,0.6,0c0.3,0,0.6,0,0.9,0
		c0.3,0,0.6,0,0.8-0.1c0.2,0,0.7-0.1,1.4-0.2c0.7-0.1,1.1-0.2,1.2-0.2c0.1,0,0.4-0.1,0.9-0.2c0.5-0.1,0.9-0.2,1.1-0.2
		c0.2,0,0.6,0,1.2,0c0.6,0,0.9,0,0.8,0c-0.1,0,0.2,0,0.9,0c0.7,0,1.4-0.1,2.1-0.1c0.7,0,1.6,0,2.5-0.1c1,0,1.6,0,2,0
		c0.4,0,0.8,0.1,1.4,0.2c0.5,0.1,0.7,0.2,0.6,0.1c-0.4-0.1,0,0,1.1,0.1c-0.4-0.6-0.5-0.8-0.4-0.6c-0.5-0.9-0.7-1.2-0.6-0.9
		c-0.5-0.6-0.7-0.8-0.6-0.7c0-0.2-1.4-0.6-4.3-1.1c-2.9-0.6-5.2-1-7-1.3c-1.8-0.3-3.1-0.6-4.1-0.9c-0.9-0.2-2-0.3-3.1-0.2
		c0,0.3,0.2,1,0.8,2.2c0.5,1.2,0.8,2.5,0.6,3.9c-0.1,1.4-0.3,2.5-0.5,3.3c-0.2,0.8-0.4,1.4-0.5,1.8c-0.1,0.4-0.1,0.8-0.2,1
		c0,0.2,0,0.3,0,0.3c0,0,0,0,0,0c0,0,0,0.8,0.2,2.3c-0.6,0,0.1-0.1,2.1-0.4c2-0.3,4.2-1,6.5-2.2c2.3-1.1,4.2-2.1,5.6-2.7
		c1.4-0.7,2.4-1.2,3.1-1.5c0.7-0.3,1.1-0.5,1.5-0.5c0.3-0.1,0.5-0.1,0.7-0.1"/>
	<path id="STROKE_236135dc-691c-45f7-b295-d5e0a40bc1c2" class="st4" d="M308.9,49c-0.1-0.2,0.3-0.5,1-0.8c0.7-0.3,1.4-0.5,1.9-0.5
		c0.6-0.1,1-0.1,1.4-0.1c0.4,0,0.5,0,0.3,0c-0.2,0,0,0,0.5-0.1c-0.8,0.2-7,2.8-18.7,7.8c-0.1-0.1-0.1-0.1-0.1-0.1
		c0,0.1,0.1,0.1,0.1,0.2c0.1,0.1,0.2,0.2,0.3,0.4c0.2,0.2,0.2,0.2,0.1,0.1c-0.1-0.1,0-0.1,0.3-0.1c0.3,0,0.8,0.4,1.6,1.1
		c0.6-0.2-0.2,0.2-2.3,1.1c0.2,0.2,1.8,0.5,5,1c3.2,0.5,5.6,0.9,7.2,1.4c1.7,0.5,2.8,0.8,3.4,1.1c0.6,0.2,1.1,0.5,1.5,0.7
		c0.3,0.2,0.5,0.4,0.5,0.3c0,0,0,0-0.1,0c-0.1,0,0.2,0.1,0.7,0.1c0.5,0.1,0.8,0.1,1,0.1c0.2,0,0.2,0,0.1-0.1c0,0,0.3-0.2,0.8-0.6
		c0.1,0.6,0.1,0.4-0.3-0.8c-0.3-1.2-0.5-2.2-0.5-3c0-0.8,0-1.6,0-2.4c0-0.7,0-1.2-0.1-1.3c0-0.1-0.1-0.8-0.2-1.9
		c-0.1-1.2-0.2-2.1-0.3-3c-0.1-0.8,0.6-1.8,1.9-3c0.1,0.1-0.2,0.2-0.9,0.3c-0.7,0.1-1.3,0.1-1.7,0.1"/>
</g>
</svg>
