<?xml version="1.0" encoding="utf-8"?>
<!-- Generator: Adobe Illustrator 22.1.0, SVG Export Plug-In . SVG Version: 6.00 Build 0)  -->
<svg version="1.1" id="Ebene_1" xmlns="http://www.w3.org/2000/svg" xmlns:xlink="http://www.w3.org/1999/xlink" x="0px" y="0px"
	 viewBox="0 0 422.4 114.3" style="enable-background:new 0 0 422.4 114.3;" xml:space="preserve">
<style type="text/css">
	.st0{fill:none;stroke:#171612;stroke-width:1.82;stroke-linecap:round;stroke-linejoin:round;}
	.st1{fill:none;stroke:#171612;stroke-width:1.872;stroke-linecap:round;stroke-linejoin:round;}
	.st2{fill:none;stroke:#171612;stroke-width:1.806;stroke-linecap:round;stroke-linejoin:round;}
	.st3{fill:#FAC141;stroke:#FAC141;stroke-width:0.5;stroke-linecap:round;stroke-linejoin:round;}
	.st4{fill:none;stroke:#000000;stroke-width:3.543;stroke-linecap:round;stroke-linejoin:round;stroke-dasharray:0.354,5.314;}
</style>
<g>
	<path id="STROKE_6d7553e5-068a-4d55-81c4-e2536016ba35" class="st0" d="M1.4,0.9c0.3,0,0.6,0,0.9,0C2.6,0.9,2.3,0.9,1.4,0.9
		c0,1.8-0.2,38.1-0.5,109.1c0.5,0,2.7,0,6.4,0c3.8,0,7,0,9.6,0c2.6,0,8.2,0,16.8,0.1c8.6,0,15.2,0.1,19.8,0.1c4.6,0,8.3,0,11.1,0
		c2.8,0,9,0,18.8,0.1c9.8,0,18.1,0.1,24.9,0.1c6.8,0,11.8,0.1,15,0.1c3.2,0,5,0,5.3,0c0,0,0-8,0.1-23.8c0.1-15.9,0.1-28.1,0.2-36.6
		c0-8.5,0.1-14.8,0.1-18.9c0-4.1,0-7.4,0-9.8c0-2.4,0-9.1,0.1-20c-0.9,0-8.5,0-22.6-0.1C92.2,1.3,79,1.2,66.9,1.2
		C54.7,1.1,40.9,1.1,25.5,1C10,0.9,2,0.9,1.4,0.9"/>
	<path id="STROKE_99a2ccde-d750-4d42-84ef-1eb5309888c9" class="st1" d="M151.8,1.5c-0.6,0-1.3,0-2,0c0,0,0.1,0,0.1,0
		c0,0-0.4,0-1.3,0c0,1,0,6-0.1,14.9c0,9-0.1,19.1-0.1,30.4c0,11.3-0.1,20.3-0.1,27.2c0,6.9-0.1,14.4-0.1,22.6c0,8.2-0.1,12.8-0.1,14
		l1.2,0c0,0-0.3,0-0.9,0c0.4,0,0.4,0,0.1,0c-0.3,0,2.9,0,9.7,0c6.7,0,12,0.1,15.8,0.1c3.8,0,7.7,0,11.8,0.1c4,0,13,0.1,26.8,0.1
		c13.8,0.1,25,0.1,33.4,0.1c8.4,0,15.5,0.1,21.2,0.1c5.7,0,8.6,0,8.7,0c0-0.9,0.2-37.3,0.5-109.1c-0.9,0-1.3,0-1,0
		c0.3,0-20.5-0.1-62.2-0.3c-41.8-0.2-63.2-0.3-64.4-0.3"/>
	<path id="STROKE_c9301d96-645d-41a2-abeb-a7267a176113" class="st2" d="M296.3,3.7c-0.3,0-0.6,0-1.1,0c0,0,0.1,0,0.1,0
		c0.1,0-0.4,0-1.4,0c0,1.3,0,4.9,0,10.6s0,10.8-0.1,15.1c0,4.3-0.1,18.7-0.2,43.3c-0.1,24.6-0.2,37.9-0.2,40.1c1,0,2.1,0,3.2,0
		s5,0,11.9,0.1c6.8,0,12.1,0.1,15.9,0.1c3.8,0,6.6,0,8.5,0c1.9,0,11.6,0,29.2,0.1c17.6,0.1,31.8,0.1,42.6,0.2
		c10.9,0,16.3,0.1,16.4,0.1c0-0.4,0.2-36.8,0.5-109.1c-0.9,0-5.3,0-13.4-0.1c-8.1,0-17.5-0.1-28.2-0.1C369.1,4,360.2,4,353,4
		c-7.2,0-12.5-0.1-15.9-0.1c-3.4,0-7.3,0-11.8-0.1c-4.4,0-10.7,0-18.9-0.1s-12.3-0.1-12.5-0.1"/>
	<path id="STROKE_4536ac03-9234-4032-8b46-f4d5bb4b45e9" class="st3" d="M3.2,24.4c0,0.5-0.1,1-0.3,1.6c0,0,0,0-0.1,0
		c0-0.7,0-1,0-0.9c0-0.5,0-0.7-0.1-0.6c0-0.1,0-0.2-0.1-0.4c0,0-0.1,0-0.4,0c-0.1,1.2-0.2,1.5-0.2,0.9c0-0.6-0.1,3.2-0.2,11.5
		C1.8,44.7,1.7,51.2,1.6,56c-0.1,4.8-0.1,8.3,0,10.6c0.1,2.3,0.2,3.8,0.4,4.6c0.2,0.8,0.5,1.5,0.8,2.3c0.3,0.7,0.5,1.3,0.4,1.7
		c-0.1,0.4-0.1,0.9-0.1,1.4c0,0.6,0,0.8,0,0.9c0,0,0,0.1,0,0.2c0,0.1-0.2,3-0.7,8.7c0.4,0,0.6,0,0.6,0c0.9,0.1,1.2,0.2,0.9,0.2
		c0.8,0.2,1.1,0.2,1,0.2c0.6,0.3,3.3,0.8,8.2,1.5c4.9,0.7,8.8,1.1,11.6,1.4c2.8,0.3,5,0.4,6.4,0.2c1.4-0.2,3-0.5,4.6-1.1
		c1.7-0.5,3.3-0.8,4.9-0.7s3,0.3,4,0.4c1,0.2,1.9,0.4,2.5,0.8c0.7,0.3,2.6,0.2,5.8-0.5c0,0.2,0-0.5,0.1-1.9c0-1.5,0.3-4.3,0.8-8.6
		c0.5-4.3,0.8-8.1,1.1-11.4c0.2-3.3,0.5-6.7,0.8-10.4c0.3-3.6,0.4-6.7,0.5-9.3c0-2.5,0.3-5.5,0.7-8.9c0.5-3.4,0.9-8,1.3-13.9
		c0,0-0.1,0-0.1,0"/>
	<path id="STROKE_e35688a9-07ae-4957-9bcc-ce0f74b43e7a" class="st3" d="M150.1,42.4c-0.5,0.4-0.7,0.5-0.5,0.4
		c-0.6,1.2-0.9,1.6-0.8,1.2c0.1-0.4,0.2,0.9,0.3,3.9c0.2,3,0.3,5.8,0.4,8.4c0.1,2.6,0.2,4.7,0.2,6.2c0,1.5,0.2,3.1,0.5,4.7
		c0.3,1.6,0.8,3.1,1.4,4.7c0.4,0,0.6,0,0.5-0.1c0.1-0.1,0.3-0.3,0.6-0.6c0.3-0.3,1.7-0.3,4.1,0c2.4,0.3,4.5,0.4,6.2,0.4
		c1.8,0,3.3,0,4.7-0.1c1.4,0,2.5-0.1,3.3-0.1c0.9-0.1,1.4-0.2,1.6-0.4c0.2-0.2,0.4-0.5,0.6-0.8c0.2-0.3,0.3-0.5,0.3-0.6
		c0-0.1,0-0.2,0-0.2c0-0.1,0,0,0,0.1c0,0.1,0.2-1.4,0.6-4.7c0.4-3.2,0.6-6.3,0.6-9.1c0.1-2.8,0.1-4.9,0.1-6.3c0-1.4,0-2.4-0.2-3.1
		c-0.2-0.7-0.3-1.2-0.3-1.6c0-0.3-0.1-0.5-0.1-0.4c0,0-0.2-0.1-0.4-0.3c-0.2-0.2-0.4-0.4-0.6-0.5c-0.2-0.2-0.3-0.3-0.5-0.4"/>
	<path id="STROKE_89befb6d-0286-4aa3-8d40-c932762ceb50" class="st3" d="M297.1,20.7c0.4-0.5,0.6-0.8,0.7-0.9c0-0.1,0-0.1,0,0
		c0,0.1,0,0,0.2-0.4c-0.3,0.2-0.4,0.3-0.3,0.2c0.1-0.1,0,0-0.1,0.3C297.4,20.3,297.3,20.5,297.1,20.7c-0.1,0.3-0.2,0.5-0.1,0.4
		c0-0.1,0-0.1,0,0c0,0.1-0.1,0.2-0.1,0.4c0,0.2-0.1,0.3-0.1,0.3c0,0,0,0,0,0c0,0,0,0,0-0.1c0-0.1,0-0.1,0,0c0,0.1,0,0.1,0,0.2
		c0,0.1,0,1.4-0.1,4c0,2.6,0,5,0,7.3s0,4.1,0,5.6c0,1.4,0,5.7,0,12.7c0,7-0.2,12.4-0.4,16.1c-0.2,3.7-0.4,7-0.4,9.8
		c-0.1,2.8,0,5.2,0.1,7c0.1,1.9,0.3,3.6,0.4,5.1c0.2,1.5,0.4,2.4,0.7,2.6c0.3,0.2,0.6,0.3,0.8,0.3c0.2,0,0.3,0,0.3,0
		c0,0,0.2,0,0.7,0c0.5,0,0.7,0,0.7,0c0,0,0.2,0.1,0.5,0.2s0.7,0.3,1.2,0.5c0.5,0.2,1.3,0.3,2.3,0.3c1,0,1.8,0,2.4,0.1
		c0.6,0.1,2,0,4.3-0.3c2.3-0.2,4.8-0.9,7.6-1.9c2.8-1,5.4-1.9,7.7-2.6c2.3-0.7,4.7-1.2,7.1-1.5c2.4-0.3,5.5,0,9.3,0.9
		c3.8,0.9,6.6,1.7,8.6,2.3c1.9,0.6,3.4,0.9,4.5,0.9c1.1,0,2.2,0.3,3.4,0.7c0,0,0,0.1,0,0.2c0.9,0,1.2,0,0.9,0c0.6,0,1,0,1,0
		c0,0,0,0,0,0c0.5-0.2,0.7-0.3,0.7-0.3c0.6-0.4,1.5-0.7,2.8-0.8c0.2-0.1,0.2-3.6-0.1-10.4c-0.3-6.8-0.5-12-0.7-15.3
		c-0.2-3.4-0.2-5.9-0.1-7.4c0.1-1.6,0.2-4,0.1-7.2c0-3.3-0.1-6.1-0.2-8.6c-0.1-2.4-0.1-4.9,0-7.4c0.1-2.5,0.2-5.5,0.3-8.9
		c0,0,0,0.1,0,0.2c0-1.1-0.1-1.5,0-1.2c0-0.3,0-1.8,0-4.6c-0.3,0.2-0.6,0.6-1,1.1c-0.3,0.5-0.6,0.9-0.9,1.3"/>
	<path id="STROKE_1eb6b195-70dc-4786-a007-80b62b8e232b" class="st4" d="M126.7,55.4c0,0,0.2,0,0.5,0c0.1,1-1.6,1.4-5,1
		c-3.4-0.3-6.4-0.5-8.9-0.4c-2.5,0.1-4.6,0.2-6.2,0.5s-3.5,0.4-5.7,0.4c-2.1,0-4.2,0.3-6.3,0.7c-2,0.4-3.8,0.7-5.4,0.9
		c-1.6,0.2-2.7,0.2-3.3-0.1c-0.6-0.2-1.5-0.5-2.7-0.8C82.6,57.2,81.7,57,81,57c-0.7,0-1,0-1,0c0.1,0-0.2,0-0.9,0
		c-0.6,0-1.3-0.1-2-0.3c-0.7-0.2-1.6-0.4-2.9-0.7c-1.2-0.2-2.4-0.3-3.4-0.3c-1.1,0-2,0-3-0.1c-0.9-0.1-1.3-0.1-1.2-0.1
		c0.1,0,0.1,0,0.1,0c0,0-0.2,0-0.5-0.1c-0.3,0-0.5-0.1-0.6-0.1c-0.1,0-0.5,0-1.1-0.1c-0.6,0-1.2-0.1-1.7-0.2
		c-0.6-0.1-1.1-0.2-1.5-0.3c-0.4-0.1-0.6-0.2-0.6-0.2c0,0,0,0,0,0c-0.1,0-0.2-0.1-0.5-0.2c-0.2-0.1-0.3-0.1-0.3-0.1c0.1,0,0.1,0,0,0
		c-0.1,0-0.2,0-0.5-0.1c-0.3,0-0.6-0.1-1.1-0.1c-0.5,0-0.9,0-1.2,0c-0.3,0-0.6,0-0.9,0c-0.3,0-0.4,0-0.3,0c0.1,0,0.1,0,0,0
		c-0.1,0-0.3,0-0.7,0.1c-0.4,0-0.5,0-0.4,0c0.1,0,0.2,0,0.1,0c0,0-0.1,0-0.3,0c-0.2,0-0.4,0-0.8,0c0.3-0.3,2-1.9,5-4.5
		c3-2.7,6.6-5.1,10.6-7.3c0,0,0,0.1,0.1,0.3c0.1,0.2-0.3,0.6-1.2,1.3c-0.4-0.2,0.3-0.8,2.1-1.6c0.2,0.5,0.2,8.8,0.2,24.8
		c-0.2-0.7-0.3-1-0.3-1.1c0-0.1,0,0,0,0.1c-0.7-0.5-1-0.6-0.7-0.5c0.4,0.1-0.4-0.3-2.3-1.3c-1.9-1-3.5-2.1-4.8-3.2
		c-1.3-1.1-2.3-2-3-2.6c-0.7-0.7-1.1-1.1-1.3-1.4c-0.1-0.2-0.3-0.5-0.5-0.9c-0.2-0.3-0.4-0.7-0.7-1.2c-0.3-0.4-0.6-0.8-0.7-1.2
		c-0.2-0.3-0.5-0.6-0.8-0.9c-0.4-0.3-0.6-0.5-0.7-0.6c-0.1-0.1-0.2-0.2-0.2-0.3"/>
	<path id="STROKE_f013277a-0375-4b55-a215-5214bdc39ec2" class="st4" d="M175.4,56.6c0-0.3,0-0.5-0.1-0.5c-0.2-0.4-0.3-0.6-0.3-0.5
		c0,0-0.1-0.2-0.4-0.4c-0.2-0.1,1.9,0,6.3,0.3c4.4,0.3,9.1,0.1,14.2-0.6c5-0.7,9.4-1.2,13.1-1.6c3.7-0.3,6.3-0.5,8-0.4
		c1.6,0,2.8,0.1,3.4,0c0.6,0,1.2,0,1.6,0c0.5,0,1.1,0,2,0c0.8,0,1.7,0,2.5,0c0.8,0,1.6,0,2.2,0c0.7,0,1.7,0,3.2,0c1.5,0,2.7,0,3.7,0
		c1,0,1.8,0.1,2.3,0.2c0.6,0.1,1,0.2,1.4,0.3c0.4,0.1,0.5,0.1,0.2,0.1c-0.2,0,0.4,0,1.8,0c1.4,0,2.6,0,3.4,0.1
		c0.8,0.1,2.1,0.2,3.8,0.2c1.7,0,3.3,0,4.8-0.2c1.5-0.2,2.6-0.2,3.3-0.2c0.7,0,1.1,0,1.4,0c0.3,0,0.6,0,0.8,0c0.3,0,0.2,0-0.1,0
		c-0.3,0,0.6,0,2.9,0s4.4,0,6.4,0c2,0,3.4,0,4.3,0c0.9,0,1.4-0.1,1.6-0.1"/>
	<path id="STROKE_7d94439d-c479-453c-b6b5-32642c3c1dab" class="st4" d="M191.9,44.8c0,0,0.4-0.2,1.2-0.6v0c0,0-0.2,0-0.4-0.1
		c-0.3-0.1-0.9,0.1-1.8,0.5c-0.9,0.4-1.8,0.8-2.6,1.3c-0.8,0.4-1.8,1-3.1,1.8c-1.2,0.7-1.9,1.1-2.2,1.1c-0.2,0-1,0.5-2.2,1.4
		c-1.2,0.9-2.4,1.9-3.4,3.1c-1,1.2-1.6,1.8-1.6,2c-0.1,0.2,0,0.3,0,0.3c0.1,0,0,0.1-0.1,0.3s-0.3,0.3-0.4,0.3
		c-0.1,0-0.2,0.1-0.2,0.1c0,0,0,0,0,0c0.1,0-0.1,0-0.3,0.1c-0.3,0.1-0.6,0.3-1,0.5c-0.2-0.1-0.1,0.4,0.5,1.6
		c0.5,1.2,1.5,2.4,2.9,3.7c1.4,1.3,2.6,2.3,3.4,3c0.8,0.7,1.5,1.3,2,1.7c0.5,0.4,1.1,0.9,1.8,1.5c0.7,0.6,1.7,1.2,3,1.7
		c1.3,0.5,3,0.7,5.1,0.7c0,0-0.2,0-0.4,0c-0.1,0.5-0.2-1.1-0.4-4.8c-0.2-3.8-0.1-7.1,0.3-10c0.4-2.9,0.7-6.4,0.8-10.6
		c-0.1,0-0.1,0-0.3,0c-0.1,0-0.3,0.1-0.5,0.2"/>
	<path id="STROKE_2f989b87-dd63-402a-9c35-e166f0c00c33" class="st4" d="M417.3,56.4c0-0.5,0-0.7,0-0.7c-0.1-0.8-0.1-1.2-0.1-1.3
		c0-0.1,0,0,0,0.1c-0.3-0.4-0.4-0.6-0.4-0.5c0-0.1-0.2-0.2-0.6-0.4c-0.3-0.2-0.4-0.3-0.4-0.3c0.1,0.1,0,0.1-0.1,0s-0.3-0.1-0.6-0.1
		c-0.3,0-0.8-0.1-1.6-0.1c-0.8,0-1.7,0-2.7,0c-1.1,0-3.7,0.3-8,0.8c-4.2,0.5-8.1,1-11.5,1.4c-3.4,0.4-6.5,0.3-9.2-0.1
		c-2.8-0.5-4.8-0.8-6.1-1c-1.3-0.2-2.9-0.3-4.6-0.2c-1.7,0-3,0-4-0.1c-1-0.1-1.7-0.1-2.1-0.2c-0.4-0.1-0.9-0.1-1.2-0.1
		c-0.4,0-0.5,0-0.4,0c0.1,0,0.1,0,0.1,0c0,0,0,0-0.1,0c-0.1,0-0.2,0-0.1,0c0,0,0.1,0,0.1,0c0.1,0-0.4,0-1.4,0c0.2-0.1,0.2,0,0,0.1
		c-0.2,0.2,0.3-0.2,1.4-1c1.1-0.8,8-3.6,20.5-8.5c-0.6-0.3-1.4,0.6-2.4,2.6c-1.1,2-2.1,4.4-3.2,7.2c-1.1,2.7-1.7,4.6-1.9,5.5
		c-0.2,0.9-0.3,1.7-0.4,2.2c-0.1,0.5-0.1,1.1-0.1,1.6c0,0.6,0.1,1.1,0.1,1.5c0.1,0.4,0.1,0.6,0.1,0.6c0,0,0-0.1,0-0.2
		c0-0.1,0,0.2,0.2,0.9c-1.2,0.1-1.6,0.2-1.2,0.1c-0.5-0.3-0.7-0.4-0.7-0.5c-0.4-0.3-1.4-1.2-2.9-2.7c-1.5-1.5-4.1-3.3-7.9-5.5
		c0,0,0.1,0,0.3,0c0.2,0,0.4-0.1,0.7-0.1"/>
</g>
</svg>
